<?xml version="1.0" encoding="UTF-8"?>
<svg width="68px" height="57px" viewBox="0 0 68 57" version="1.1" xmlns="http://www.w3.org/2000/svg" xmlns:xlink="http://www.w3.org/1999/xlink">
    <!-- Generator: Sketch 46.2 (44496) - http://www.bohemiancoding.com/sketch -->
    <title>noun_1111435_cc</title>
    <desc>Created with Sketch.</desc>
    <defs></defs>
    <g id="Page-1" stroke="none" stroke-width="1" fill="none" fill-rule="evenodd" stroke-linecap="round" stroke-linejoin="round">
        <g id="Artboard-2" transform="translate(-16.000000, -13.000000)" stroke="#FFFFFF">
            <g id="noun_1111435_cc" transform="translate(17.000000, 14.000000)">
                <path d="M40.312,25.432 L38,25.432 C34.625,25.432 33,28.682 33,30.932 C33,33.182 33,33.307 33,36.182 C33,46.182 43,51.932 43,51.932 L43,54.515" id="Shape" stroke-width="2"></path>
                <path d="M46.833,25.432 L46.833,4.766 C46.833,3.063 45.453,1.683 43.75,1.683 L43.75,1.683 C42.047,1.683 40.667,3.063 40.667,4.766 L40.667,33.433" id="Shape" stroke-width="2"></path>
                <path d="M53,26.682 L53,17.432 C53,15.729 51.62,14.349 49.917,14.349 L49.917,14.349 C48.214,14.349 46.834,15.729 46.834,17.432 L46.834,23.182" id="Shape" stroke-width="2"></path>
                <path d="M59.167,28.349 L59.167,19.099 C59.167,17.396 57.787,16.016 56.084,16.016 L56.084,16.016 C54.381,16.016 53.001,17.396 53.001,19.099 L53.001,24.849" id="Shape" stroke-width="2"></path>
                <path d="M59.167,28.099 L59.167,22.349 C59.167,20.646 60.547,19.266 62.25,19.266 L62.25,19.266 C63.953,19.266 65.333,20.646 65.333,22.349 L65.333,31.599 C65.333,31.599 65.333,34.432 65.333,36.682 C65.333,38.932 64.75,47.682 60.583,51.932 L60.583,54.515" id="Shape" stroke-width="2"></path>
                <path d="M60.156,46.844 C61.112,44.951 62.029,42.15 62.25,38.182" id="Shape"></path>
                <path d="M57.667,50.182 C57.667,50.182 57.958,49.968 58.395,49.483" id="Shape"></path>
                <path d="M15.096,11.625 L15.096,1.255" id="Shape" stroke-width="2"></path>
                <polyline id="Shape" stroke-width="2" points="10.679 5.016 15.096 0.599 19.575 5.078"></polyline>
                <path d="M15.158,19.313 L15.158,29.682" id="Shape" stroke-width="2"></path>
                <polyline id="Shape" stroke-width="2" points="19.575 25.922 15.158 30.339 10.679 25.859"></polyline>
                <path d="M18.971,15.438 L29.341,15.438" id="Shape" stroke-width="2"></path>
                <polyline id="Shape" stroke-width="2" points="25.58 11.021 29.997 15.438 25.518 19.917"></polyline>
                <path d="M11.283,15.5 L0.914,15.5" id="Shape" stroke-width="2"></path>
                <polyline id="Shape" stroke-width="2" points="4.674 19.917 0.257 15.5 4.737 11.021"></polyline>
            </g>
        </g>
    </g>
</svg>