<?xml version="1.0" encoding="UTF-8"?>
<svg width="128px" height="129px" viewBox="0 0 128 129" version="1.1" xmlns="http://www.w3.org/2000/svg" xmlns:xlink="http://www.w3.org/1999/xlink">
    <!-- Generator: Sketch 50.2 (55047) - http://www.bohemiancoding.com/sketch -->
    <title>Group Copy 2</title>
    <desc>Created with Sketch.</desc>
    <defs></defs>
    <g id="uncomfortable-sirens" stroke="none" stroke-width="1" fill="none" fill-rule="evenodd">
        <g id="Group-Copy-2" fill="#FFFFFF" fill-rule="nonzero">
            <path d="M18.0262579,101.876845 C18.1819681,102.88116 17.4959248,103.821839 16.4939373,103.977911 C15.4919499,104.133983 14.5534505,103.446346 14.3977403,102.442031 C14.3311036,102.012231 10.1494846,77.3203866 9.56419437,71.635245 C8.63274135,62.5876963 8.82492801,53.8949295 10.3627496,40.8446762 C14.1132874,9.01688259 66.3152211,-13.2120355 88.8582892,8.92084659 C99.217255,19.0913241 105.753864,31.9617956 109.486834,47.8579158 C112.330862,59.9686546 113.370686,71.6756674 113.999049,91.4232031 C114.031373,92.4390559 113.235974,93.2888321 112.222475,93.3212314 C111.208976,93.3536307 110.361169,92.5563841 110.328845,91.5405313 C109.707841,72.0242283 108.68488,60.5070743 105.912447,48.7012118 C102.328577,33.4400051 96.1069881,21.189802 86.2887328,11.5501964 C66.0262221,-8.34362445 17.4174983,12.3552129 14.0094707,41.2763987 C12.5015175,54.0731832 12.3152232,62.4994347 13.2168685,71.2574501 C13.7876985,76.8021337 17.9406837,101.3249 18.0262579,101.876845 Z" id="Path-27"></path>
            <path d="M12.2191799,86.9635698 C34.6345689,89.5346175 35.5286679,113.59137 16.7539363,127.774363 C14.0082591,129.84853 9.43031658,129.14455 6.61643317,126.75497 C-0.448053731,120.755731 -1.64728615,106.258354 2.02827605,94.636013 C3.78249398,89.0890742 6.34343802,85.6318776 9.5927259,86.0312711 C10.3694953,86.1267494 11.0895745,86.4403552 11.7573107,86.9706109 C11.907021,86.948611 12.0618785,86.9455273 12.2191799,86.9635698 Z M16.9750232,100.118234 C17.1555954,101.128824 16.5016647,102.097914 15.5144282,102.282758 C14.5271916,102.467601 13.5804956,101.798202 13.3999235,100.787612 C12.6767417,96.7402536 11.8116266,93.7469301 10.8643471,91.8229847 C10.1522164,90.3766316 9.53036517,89.770714 9.15943022,89.7251197 C8.36371845,89.627313 6.73856515,91.8212206 5.48601165,95.7818674 C2.21752565,106.11701 3.29125992,119.097255 8.93693508,123.891623 C10.5779093,125.285156 13.3616469,125.713229 14.5958651,124.780864 C22.1781766,119.052959 26.5898987,110.927173 26.3274313,103.865189 C26.0890127,97.4502638 22.0674359,92.7790313 14.5534548,91.1147506 C15.509125,93.3748744 16.3069369,96.3792226 16.9750232,100.118234 Z" id="Path-28"></path>
            <path d="M114.084247,81.0641331 C114.501967,80.1502465 115.582516,79.747536 116.497722,80.164654 C139.586444,90.6876658 124.691265,125.771084 100.224857,119.182462 C92.9053733,117.211379 90.1884584,107.617423 93.2224068,98.2931281 C96.24243,89.0116294 103.844607,82.8295887 114.179272,82.7553727 C113.881727,82.2592148 113.82559,81.6300214 114.084247,81.0641331 Z M117.402937,86.9108688 C107.23049,85.8787968 99.8872504,91.2469044 97.0564187,99.921019 C94.5568117,107.580209 96.6613096,114.989445 101.594868,116.314054 C120.67517,121.436919 132.805325,96.5278804 119.187929,86 C118.836586,86.6079069 118.149106,86.9865732 117.402937,86.9108688 Z" id="Path-29"></path>
        </g>
    </g>
</svg>