<?xml version="1.0" encoding="UTF-8"?>
<svg width="2721px" height="668px" viewBox="0 0 2721 668" version="1.1" xmlns="http://www.w3.org/2000/svg" xmlns:xlink="http://www.w3.org/1999/xlink">
    <!-- Generator: Sketch 50.2 (55047) - http://www.bohemiancoding.com/sketch -->
    <title>Group 3</title>
    <desc>Created with Sketch.</desc>
    <defs></defs>
    <g id="Page-1" stroke="none" stroke-width="1" fill="none" fill-rule="evenodd">
        <g id="Artboard-2-Copy-2" transform="translate(-61.000000, -83.000000)" fill="#000000" fill-rule="nonzero">
            <g id="Group-3" transform="translate(60.000000, 83.000000)">
                <path d="M189.427634,300.173452 C189.427634,296.836306 192.106389,294.131016 195.4108,294.131016 C198.715212,294.131016 201.393966,296.836306 201.393966,300.173452 C201.393966,313.784229 201.324529,324.666831 201.11629,349.144713 C200.700695,397.996637 200.700695,419.690812 201.391978,446.764906 C202.237766,479.890181 213.510214,503.427536 229.557903,510.017712 C245.678165,516.63769 265.979819,505.628026 284.736271,476.035688 C299.525763,452.702083 303.802886,424.505143 300.266946,388.562041 C298.793214,373.581438 296.37443,359.460038 291.685873,336.271281 C291.749434,336.585643 289.332659,324.68644 288.6752,321.399865 C287.559692,315.823552 286.681933,311.270286 285.905242,306.978926 C285.311097,303.696168 287.464546,300.548546 290.715103,299.948515 C293.965661,299.348485 297.082409,301.523266 297.676553,304.806024 C298.438041,309.01338 299.302511,313.497711 300.404563,319.006759 C301.057868,322.27257 303.470617,334.151947 303.410276,333.853514 C308.175481,357.421357 310.649793,371.866944 312.174655,387.367284 C315.95289,425.773344 311.281219,456.57135 294.814682,482.550853 C273.302373,516.49115 247.554813,530.45415 225.050399,521.212443 C203.785589,512.479795 190.385135,484.49907 189.429622,447.076422 C188.733626,419.817758 188.733626,398.031277 189.150399,349.040889 C189.358344,324.597616 189.427634,313.738083 189.427634,300.173452 Z" id="Path-7"></path>
                <path d="M423.817753,404.23188 C424.543656,404.283159 424.939666,404.311144 425.27841,404.335243 C425.8393,404.375146 426.309638,404.409106 426.76132,404.442465 C435.0556,405.055026 439.667988,405.716306 443.452281,407.271362 C450.265761,410.071182 455.563604,413.828134 458.756765,419.110824 C461.99978,424.475991 461.127565,431.309114 457.760685,439.627637 C456.619799,442.446415 455.196605,445.380761 453.552625,448.388503 C452.163867,450.929306 450.685793,453.399449 449.184648,455.747465 C448.640213,456.599044 448.123819,457.385709 447.632872,458.11708 C447.327408,458.572134 447.082817,458.930312 446.848291,459.27122 C426.856786,488.537934 403.697879,496.703713 372.188306,484.249148 C356.526666,478.058683 349.960352,459.624958 349.278223,433.086754 C348.998462,422.202689 349.744322,410.710242 351.185588,398.870077 C351.522409,396.103055 351.877384,393.481457 352.26977,390.789267 C352.463578,389.459542 352.947886,386.253586 352.992879,385.941728 C359.316424,342.111908 367.627611,320.159225 384.020284,308.601825 C399.519868,297.674085 419.769668,296.713463 462.39,302.308992 C465.666838,302.739201 467.977908,305.770671 467.551919,309.07997 C467.12593,312.389268 464.124196,314.723232 460.847358,314.293023 C421.188364,309.086281 403.014904,309.948405 390.870132,318.510888 C378.064811,327.53908 370.708121,346.97061 364.834178,387.684145 C364.781843,388.046895 364.295766,391.264553 364.108541,392.549121 C363.729182,395.151932 363.386824,397.680343 363.062512,400.344603 C361.687566,411.63994 360.978249,422.569323 361.240525,432.773157 C361.807962,454.849241 366.915409,469.187465 376.549616,472.995509 C402.698168,483.331061 420.05697,477.210387 436.998334,452.40895 C437.240723,452.056416 437.453835,451.744333 437.728025,451.335869 C438.170558,450.676622 438.637808,449.964822 439.131654,449.192372 C440.492237,447.064216 441.830757,444.827294 443.076382,442.548361 C444.510536,439.924506 445.734659,437.400603 446.683976,435.055133 C447.761762,432.392256 448.442882,430.057356 448.680884,428.192802 C448.874232,426.678074 448.752253,425.753519 448.543086,425.407479 C446.930458,422.739585 443.604144,420.380738 438.942312,418.465081 C436.770359,417.572574 432.832274,417.007968 425.888565,416.495152 C425.448861,416.462678 424.988628,416.429447 424.437532,416.390241 C424.102083,416.366376 423.709537,416.338637 422.981137,416.28718 C415.396112,415.750313 412.216423,415.394595 409.199304,414.479895 C402.233618,412.368109 399.359015,405.779267 405.022098,399.850991 C409.379399,395.289645 414.965613,392.868629 421.826505,391.998791 C426.590598,391.39479 430.474454,391.483851 439.278309,392.085111 C447.287161,392.632077 450.705665,392.710466 454.432196,392.238009 C457.710873,391.822332 460.702433,394.169581 461.114033,397.480737 C461.525633,400.791892 459.201408,403.813087 455.922731,404.228764 C451.158638,404.832765 447.274782,404.743705 438.470927,404.142445 C431.133113,403.641308 426.036432,403.556821 422.251129,404.118358 C422.748735,404.155372 423.270442,404.193141 423.817753,404.23188 Z" id="Path-8"></path>
                <path d="M501.193995,315.883785 C497.889583,315.883785 495.210829,313.178494 495.210829,309.841349 C495.210829,306.504204 497.889583,303.798913 501.193995,303.798913 L580.161321,303.798913 C583.465732,303.798913 586.144487,306.504204 586.144487,309.841349 C586.144487,313.178494 583.465732,315.883785 580.161321,315.883785 L501.193995,315.883785 Z" id="Path-9"></path>
                <path d="M494.106327,339.737589 C492.682082,338.913262 492.682082,338.913262 491.93617,338.091819 C491.063939,337.043557 490.811588,336.29008 490.616825,335.276488 C490.563088,334.996832 490.531867,334.748214 490.508659,334.483616 C490.482469,334.18502 490.466887,333.856134 490.455541,333.439632 C490.437705,332.784843 490.429114,331.836613 490.425883,330.346319 C490.422629,328.845632 490.433001,319.133656 490.433001,315.883785 C490.433001,312.54664 493.111756,309.841349 496.416167,309.841349 C499.720578,309.841349 502.399333,312.54664 502.399333,315.883785 C502.399333,317.974677 502.395095,322.696105 502.392882,326.212329 C502.815184,326.620023 503.194272,327.080405 503.524688,327.576452 C504.202227,328.593628 504.703105,329.802882 505.185062,331.383714 C506.015105,334.106278 506.894573,338.389244 507.878837,344.572968 C510.152189,358.855494 512.95693,383.130578 516.381317,419.259343 C517.629433,432.4275 517.987551,446.113181 517.731216,463.083035 C517.63661,469.346084 517.50603,474.385094 517.176159,485.548185 C517.148188,486.494687 517.148188,486.494687 517.120296,487.44059 C517.066127,489.279605 516.546798,490.817643 515.610971,492.555051 C540.606376,499.695672 575.774615,500.711553 604.029691,495.533941 C607.281013,494.938151 610.394977,497.116995 610.984923,500.400526 C611.574869,503.684056 609.417396,506.828867 606.166074,507.424657 C573.87413,513.342007 533.433685,511.658415 506.22898,502.257421 C501.806323,500.729105 500.460625,496.468659 501.823056,492.623489 C502.124926,491.771525 502.521954,490.986777 503.052466,490.093818 C503.23002,489.794959 503.417918,489.491986 503.647443,489.131134 C503.772317,488.934813 504.196099,488.275365 504.194599,488.277707 C504.424957,487.918009 504.586549,487.660356 504.729811,487.422571 C504.933484,487.084517 505.079749,486.818305 505.172745,486.623774 C505.188226,486.09883 505.192596,485.950961 505.215152,485.187698 C505.543294,474.083119 505.67285,469.083601 505.766276,462.898702 C506.016435,446.3377 505.669236,433.069307 504.469433,420.410865 C501.067396,384.517915 498.288059,360.462697 496.064174,346.490952 C495.661216,343.959335 495.282294,341.798742 494.930217,339.998505 C494.69941,339.92885 494.431845,339.842564 494.106327,339.737589 Z" id="Path-10"></path>
                <path d="M512.496816,426.042449 C509.205548,426.339801 506.298762,423.886322 506.004327,420.562451 C505.709891,417.23858 508.139304,414.302998 511.430571,414.005646 L580.64024,407.752847 C583.931508,407.455495 586.838294,409.908974 587.13273,413.232845 C587.427165,416.556716 584.997752,419.492298 581.706485,419.78965 L512.496816,426.042449 Z" id="Path-11"></path>
                <path d="M635.001041,307.383599 C635.023341,304.046529 637.720111,301.359556 641.024448,301.382076 C644.328784,301.404596 646.9894,304.128082 646.967101,307.465151 C646.744348,340.800235 646.863741,365.932021 647.2319,388.451038 C647.294743,392.294943 647.362002,395.920624 647.446205,400.121019 C647.465351,401.076075 647.602013,407.745923 647.635566,409.471873 C647.76295,416.024451 647.804699,419.906015 647.76918,423.489633 C647.689551,431.523821 647.190823,437.666501 645.808776,447.773987 C644.933545,454.174916 639.252118,491.471336 638.739659,494.896374 C638.245955,498.196062 635.197041,500.466797 631.92972,499.968203 C628.662398,499.469608 626.413936,496.390491 626.90764,493.090803 C627.436137,489.558581 633.094487,452.413646 633.954929,446.12088 C635.271361,436.493263 635.729264,430.853412 635.803448,423.368676 C635.837471,419.935895 635.79675,416.149846 635.671539,409.709088 C635.638135,407.990794 635.501584,401.326364 635.482324,400.365629 C635.397841,396.151296 635.330315,392.511148 635.267198,388.650541 C634.897502,366.037512 634.777664,340.81204 635.001041,307.383599 Z" id="Path-12"></path>
                <path d="M765.530782,286.807909 C764.909374,283.530303 767.036586,280.364538 770.282042,279.736974 C773.527499,279.109411 776.662211,281.257695 777.283619,284.535301 C786.345284,332.330926 787.719967,452.547986 777.684729,487.699081 C777.254778,489.205099 776.674184,490.462934 775.728359,491.558418 C774.074356,493.474135 771.568517,494.419792 768.978015,493.800985 C766.219963,493.142155 764.73624,491.46701 763.104351,488.675477 C761.652034,486.191124 761.35643,485.508926 757.529746,476.281894 C756.615317,474.076992 755.946041,472.509877 755.29716,471.076059 C754.114767,468.463356 753.132556,466.620377 752.381337,465.596337 C753.210067,466.726038 713.669853,418.479259 695.58982,394.919679 C691.011756,388.954134 686.647849,383.16054 682.50823,377.543154 C659.583084,346.434157 644.46807,322.088804 639.11217,305.813639 C638.070015,302.646807 639.767225,299.226379 642.902994,298.173901 C646.038763,297.121423 649.42564,298.835445 650.467794,302.002278 C655.286174,316.644058 669.940695,340.247709 692.107818,370.328081 C696.199032,375.879783 700.516066,381.611148 705.048099,387.516712 C722.93597,410.825891 762.590396,459.21203 761.996463,458.402398 C763.364024,460.266617 764.677694,462.731533 766.180663,466.052606 C766.894062,467.628984 767.60732,469.299086 768.56708,471.613292 C775.275745,428.223609 773.390216,328.262382 765.530782,286.807909 Z" id="Path-13"></path>
                <path d="M830.268132,295.339503 C826.963721,295.339503 824.284966,292.634212 824.284966,289.297067 C824.284966,285.959922 826.963721,283.254631 830.268132,283.254631 L958.993702,283.254631 C962.298113,283.254631 964.976868,285.959922 964.976868,289.297067 C964.976868,292.634212 962.298113,295.339503 958.993702,295.339503 L830.268132,295.339503 Z" id="Path-14"></path>
                <path d="M820.324413,290.488744 C820.333606,287.151612 823.019802,284.453858 826.324201,284.463141 C829.628599,284.472425 832.299892,287.185231 832.290699,290.522364 C832.187743,327.897968 828.751776,360.663221 822.21633,398.406619 C822.047661,399.380709 814.945752,438.091754 813.742674,446.6298 C811.832693,460.184618 811.82852,468.801755 813.821968,474.566263 C817.713384,485.819175 832.469656,489.059117 870.109925,484.093285 C883.425076,482.336634 894.027372,480.172315 917.880424,474.719963 C929.942178,471.962876 935.318157,470.766978 942.080426,469.38655 C945.319332,468.72537 948.475718,470.84104 949.130413,474.11203 C949.785108,477.383021 947.690191,480.570675 944.451285,481.231855 C937.809682,482.587651 932.493739,483.770193 920.52205,486.506693 C896.308216,492.041513 885.464318,494.255152 871.659972,496.076342 C828.816444,501.728633 809.038279,497.386066 802.52477,478.550778 C799.72978,470.46843 799.734722,460.263282 801.895693,444.92723 C803.14027,436.094677 810.302154,397.056718 810.428868,396.324926 C816.856181,359.206018 820.223577,327.09465 820.324413,290.488744 Z" id="Path-15"></path>
                <path d="M824.428336,389.528581 C821.124874,389.608546 818.382699,386.968857 818.303518,383.63267 C818.224337,380.296483 820.838133,377.527144 824.141596,377.447179 C842.822199,376.994985 878.961982,376.354624 883.829372,376.11595 C888.094052,375.90683 892.023118,375.596054 900.29833,374.830627 C902.507638,374.626273 912.354885,373.702996 914.59644,373.494077 C921.771861,372.825308 928.624701,372.196662 936.397382,371.49799 C939.688782,371.202132 942.594476,373.65693 942.887432,376.980934 C943.180388,380.304939 940.749669,383.239417 937.458269,383.535275 C929.699339,384.232711 922.859259,384.860187 915.696122,385.527811 C913.461163,385.736115 903.60792,386.659955 901.389748,386.865128 C892.956719,387.645153 888.886921,387.96706 884.409706,388.186602 C879.325025,388.435931 842.915204,389.081077 824.428336,389.528581 Z" id="Path-16"></path>
                <path d="M30.9171361,308.632862 C27.6127247,308.632862 24.93397,305.927571 24.93397,302.590426 C24.93397,299.253281 27.6127247,296.54799 30.9171361,296.54799 L159.642706,296.54799 C162.947117,296.54799 165.625872,299.253281 165.625872,302.590426 C165.625872,305.927571 162.947117,308.632862 159.642706,308.632862 L30.9171361,308.632862 Z" id="Path-14-Copy"></path>
                <path d="M20.9734168,303.782104 C20.9826094,300.444971 23.6688059,297.747217 26.9732045,297.756501 C30.2776031,297.765784 32.9488954,300.47859 32.9397028,303.815723 C32.8367465,341.191327 29.4007803,373.95658 22.8653335,411.699978 C22.6966652,412.674068 15.5947557,451.385113 14.3916776,459.923159 C12.4816967,473.477977 12.4775238,482.095114 14.470972,487.859622 C18.3623882,499.112535 33.1186596,502.352477 70.7589285,497.386644 C84.07408,495.629993 94.676376,493.465674 118.529428,488.013322 C130.591182,485.256235 135.967161,484.060338 142.72943,482.679909 C145.968336,482.018729 149.124722,484.134399 149.779417,487.405389 C150.434111,490.67638 148.339194,493.864034 145.100289,494.525214 C138.458686,495.88101 133.142743,497.063553 121.171054,499.800052 C96.9572201,505.334872 86.1133214,507.548511 72.3089758,509.369701 C29.4654479,515.021993 9.68728275,510.679425 3.17377405,491.844137 C0.378784016,483.761789 0.38372593,473.556642 2.54469687,458.220589 C3.78927339,449.388036 10.9511583,410.350077 11.0778715,409.618286 C17.5051849,372.499378 20.8725808,340.388009 20.9734168,303.782104 Z" id="Path-15-Copy"></path>
                <path d="M25.0773402,402.82194 C21.7738776,402.901905 19.031703,400.262216 18.9525218,396.926029 C18.8733407,393.589842 21.4871372,390.820503 24.7905998,390.740538 C43.4712029,390.288344 79.610986,389.647983 84.4783762,389.409309 C88.7430554,389.200189 92.6721216,388.889414 100.947334,388.123986 C103.156642,387.919633 113.003888,386.996355 115.245443,386.787436 C122.420865,386.118667 129.273705,385.490021 137.046386,384.791349 C140.337786,384.495491 143.24348,386.950289 143.536436,390.274294 C143.829392,393.598298 141.398673,396.532777 138.107273,396.828634 C130.348343,397.52607 123.508262,398.153546 116.345125,398.82117 C114.110166,399.029475 104.256923,399.953314 102.038752,400.158487 C93.6057225,400.938512 89.5359244,401.26042 85.0587099,401.479961 C79.9740291,401.72929 43.5642075,402.374436 25.0773402,402.82194 Z" id="Path-16-Copy"></path>
                <path d="M1012.77051,252.809934 C1012.89767,249.47526 1015.67752,246.876075 1018.97948,247.00449 C1022.28144,247.132906 1024.85513,249.940294 1024.72798,253.274968 L1022.92165,300.64608 C1022.79449,303.980753 1020.01464,306.579939 1016.71268,306.451524 C1013.41072,306.323108 1010.83703,303.51572 1010.96418,300.181046 L1012.77051,252.809934 Z" id="Path-17"></path>
                <path d="M1165.25948,284.222193 C1168.56379,284.24803 1171.22172,286.974184 1171.19614,290.31123 C1171.17056,293.648275 1168.47114,296.33254 1165.16683,296.306703 C1156.31034,296.237453 1149.24608,295.971823 1133.38221,295.218142 C1102.1257,293.733166 1088.33218,293.625313 1071.35246,295.530845 C1064.39646,296.311474 1056.207,308.010102 1051.93326,324.379503 C1047.50719,341.332397 1048.61064,357.912176 1054.8165,365.39519 C1061.97859,374.031218 1071.01527,380.489674 1082.44182,385.590573 C1091.6577,389.704614 1101.22292,392.597175 1116.90653,396.424058 C1118.54135,396.822962 1118.85956,396.899791 1123.06115,397.912159 C1137.18344,401.314903 1143.98614,403.130766 1151.74874,405.806919 C1165.00162,410.375842 1175.92893,415.408021 1185.48052,421.74303 C1191.85962,425.973908 1197.31145,432.124398 1201.08371,439.162047 C1205.67498,447.727684 1204.85297,456.351661 1199.59687,464.109131 C1195.70223,469.857237 1189.61141,474.906944 1181.71559,479.641044 C1178.78534,481.397934 1175.71242,483.046682 1172.35963,484.702853 C1171.07973,485.335084 1169.80647,485.945489 1168.36838,486.620724 C1167.63812,486.963607 1165.46499,487.97463 1165.17552,488.110249 C1155.71943,492.540572 1131.44045,505.055418 1129.68189,505.904529 C1118.3514,511.375373 1110.64161,513.785435 1102.64091,513.715871 C1091.37214,513.617892 1080.61665,508.312142 1066.40732,496.224857 C1063.88,494.074969 1063.55694,490.263048 1065.68574,487.710691 C1067.81454,485.158335 1071.58907,484.832069 1074.11639,486.981957 C1086.39469,497.426603 1094.77809,501.562186 1102.74393,501.631447 C1108.50234,501.681514 1114.6954,499.745578 1124.5203,495.001697 C1126.06648,494.255137 1150.42941,481.697018 1160.13963,477.147629 C1160.45019,477.002126 1162.61725,475.993931 1163.32347,475.662336 C1164.69542,475.018156 1165.90026,474.440553 1167.10187,473.846998 C1170.1847,472.324173 1172.98139,470.823636 1175.60678,469.24953 C1189.528,460.902784 1194.8889,452.990635 1190.56028,444.915024 C1187.70631,439.590549 1183.59087,434.947712 1178.91172,431.844313 C1170.30945,426.138934 1160.25794,421.510072 1147.88286,417.243771 C1140.59441,414.731079 1134.04259,412.982184 1120.28411,409.667099 C1116.06732,408.651069 1115.74738,408.573821 1114.09619,408.170924 C1097.76486,404.185997 1087.64177,401.124731 1077.60391,396.643755 C1064.59466,390.836327 1054.06615,383.311657 1045.64273,373.154727 C1026.43356,349.992368 1042.99614,286.553846 1070.03086,283.519903 C1087.84597,281.52062 1102.05882,281.631752 1133.94452,283.14662 C1149.65175,283.89286 1156.61198,284.154577 1165.25948,284.222193 Z" id="Path-18"></path>
                <g id="Group" transform="translate(1404.000000, 0.000000)">
                    <path d="M1.37489471,32 C1.37489471,29.2385763 3.61347096,27 6.37489471,27 C9.13631846,27 11.3748947,29.2385763 11.3748947,32 C11.3748947,81.7964191 12.3369024,119.989699 14.060215,149.578736 C15.2418012,169.866406 16.1553453,179.266066 18.4095325,198.410832 C20.6969555,217.83787 20.5658973,218.710655 9.82427383,258.002383 C9.09607381,260.666062 6.34641258,262.235077 3.68273357,261.506877 C1.01905456,260.778677 -0.549961169,258.029016 0.178238848,255.365337 C10.6066682,217.21924 10.577728,217.411968 8.47813859,199.580197 C6.20290484,180.256682 5.27236601,170.68216 4.07713242,150.160167 C2.34169711,120.362985 1.37489471,81.9793479 1.37489471,32 Z" id="Path-19"></path>
                    <path d="M60.3259737,64.1825013 C60.3157719,64.1717892 60.3066471,64.1624132 60.2986441,64.1544002 C60.3014932,64.1572528 60.304602,64.1603059 60.3079909,64.1635664 L60.3259737,64.1825013 Z M74.3867739,189.09226 C74.0432811,215.722936 73.9187853,227.554968 73.8686508,242.335934 C73.8592846,245.097342 71.6131284,247.328313 68.8517206,247.318947 C66.0903127,247.30958 63.8593422,245.063424 63.8687084,242.302016 C63.9189861,227.4788 64.0437041,215.625649 64.3876056,188.963287 C65.0741823,135.733637 65.1543687,112.092548 64.4124845,82.582046 C64.3760389,81.1323187 63.634743,78.2480495 62.2764995,74.2364882 C62.0381553,73.5325405 61.7810794,72.7925536 61.4936764,71.9808093 C61.1235755,70.9354921 59.9113887,67.5803144 59.7950372,67.2546907 C59.1606434,65.4792637 58.7631219,64.300576 58.4844437,63.325133 C58.288297,62.6385708 58.1514472,62.053349 58.073251,61.4962697 C58.0089819,61.0384093 57.9818676,60.5945426 58.0127713,60.112921 C58.0790921,59.0793406 58.3685682,58.0783198 59.17157,57.0817824 C60.4281783,55.5223123 62.3591482,54.9148971 64.1610691,55.2603907 C65.0778589,55.4361725 65.7694708,55.7884639 66.4123254,56.2553442 C67.0054767,56.686127 67.5223976,57.2036972 68.1098025,57.8888049 C79.6627692,71.3633734 89.7442277,86.2873936 99.5143187,103.809626 C106.908016,117.0699 112.378508,128.21756 123.610476,152.198313 C123.794507,152.591232 123.794507,152.591232 123.978507,152.984094 C143.488808,194.640749 153.151927,212.754543 168.730916,233.58391 C169.139871,234.130689 169.561582,234.752644 170.127169,235.625465 C170.265514,235.83896 170.965786,236.931307 171.338766,237.509047 C180.909265,217.441535 184.729959,188.262945 183.769732,151.771301 C183.015992,123.126794 179.907364,96.0664088 174.041473,57.7574828 C173.623513,55.0278728 175.497476,52.4762633 178.227086,52.0583034 C180.956696,51.6403435 183.508306,53.5143061 183.926265,56.2439161 C189.851358,94.9394783 192.998658,122.336498 193.766272,151.508256 C194.848876,192.650627 190.059663,225.145735 177.571995,247.184174 C175.599884,250.664587 171.701593,251.423167 168.54164,249.44455 C167.117044,248.552533 165.941849,247.254042 164.594379,245.38377 C164.133622,244.744245 163.666663,244.054013 163.120293,243.215158 C162.823431,242.759379 161.876711,241.282124 161.735069,241.063539 C161.282314,240.364842 160.965305,239.897306 160.722982,239.573316 C151.729707,227.549158 143.61379,214.438631 135.473038,199.178559 C129.329136,187.661637 124.766467,178.243367 114.92256,157.225535 C114.738559,156.832672 114.738559,156.832672 114.55458,156.439862 C103.421056,132.669294 98.0224005,121.66802 90.7802722,108.679578 C85.4680893,99.1524094 80.0771101,90.4421488 74.4097508,82.3476299 C75.1554282,112.01924 75.0748551,135.745964 74.3867739,189.09226 Z" id="Path-20"></path>
                    <path d="M232,54.7392827 C229.238576,54.7392827 227,52.5007064 227,49.7392827 C227,46.9778589 229.238576,44.7392827 232,44.7392827 C243.380609,44.7392827 253.395207,44.7765485 264.006351,44.8468222 C266.348625,44.8623342 281.524989,44.9775633 284.98248,44.9939313 C297.036562,45.0509965 302.815127,44.9143428 309.066861,44.3751333 C314.928975,43.8695285 319.684509,43.2185266 335.930462,40.7813818 C358.841872,37.3443152 373.023272,35.2882558 396.871577,32.046167 C399.607832,31.6741833 402.127557,33.5908035 402.49954,36.3270581 C402.871524,39.0633127 400.954904,41.5830377 398.218649,41.9550214 C374.423826,45.1898395 360.283874,47.2398899 337.414017,50.6707229 C320.933606,53.1430399 316.08174,53.807229 309.926167,54.3381446 C303.300981,54.9095641 297.269062,55.0522092 284.935139,54.9938193 C281.4607,54.977371 266.269723,54.8620309 263.940126,54.8466029 C253.349884,54.7764676 243.357017,54.7392827 232,54.7392827 Z" id="Path-21"></path>
                    <path d="M315,53 C315,50.2385763 317.238576,48 320,48 C322.761424,48 325,50.2385763 325,53 L325,216.123172 C325,218.884595 322.761424,221.123172 320,221.123172 C317.238576,221.123172 315,218.884595 315,216.123172 L315,53 Z" id="Path-22"></path>
                    <path d="M413,32.7004175 C410.238576,32.7004175 408,30.4618413 408,27.7004175 C408,24.9389938 410.238576,22.7004175 413,22.7004175 C426.972417,22.7004175 433.95155,22.7755112 449.146164,23.0145521 C458.325904,23.1589674 461.422063,23.1483288 464.883454,22.9069405 C468.481447,22.6560259 471.839228,22.1608875 479.188347,20.8332571 C480.811472,20.5400368 489.206972,19.0008693 491.921389,18.5083369 C498.236115,17.3625266 504.387247,16.2717655 511.342149,15.0734204 C514.063473,14.6045302 516.649652,16.4304885 517.118542,19.1518123 C517.587433,21.8731361 515.761474,24.4593155 513.040151,24.9282056 C506.115965,26.1212582 499.993659,27.2069077 493.706742,28.3476721 C491.005809,28.8377576 482.605157,30.3778697 480.966088,30.6739703 C473.281892,32.0621331 469.635469,32.5998343 465.579138,32.8827123 C461.727824,33.1512928 458.470793,33.1624842 448.988863,33.0133149 C433.842649,32.7750353 426.90774,32.7004175 413,32.7004175 Z" id="Path-23"></path>
                    <path d="M525.542084,228.850708 C525.532109,228.85318 525.518991,228.856488 525.502669,228.86065 C525.512662,228.858102 525.522655,228.855587 525.532648,228.853103 L525.542084,228.850708 Z M531.582985,232.470326 C532.265233,235.146143 530.649126,237.868393 527.973309,238.550642 C529.436338,238.177616 508.275759,243.826914 499.999028,245.847609 C492.36273,247.711947 485.216703,249.293415 478.430829,250.58288 C465.113393,253.113484 453.775805,254.406948 444.647075,254.196023 C432.916261,253.924975 424.705174,251.205002 420.748435,244.840344 C414.343338,234.537348 411.410164,196.361626 410.383471,134.793411 C409.95695,109.216007 409.922045,84.5921443 410.104273,51.9901901 C410.114668,50.1305351 410.163323,41.8252136 410.174109,39.822954 C410.195581,35.8372382 410.205783,33.1211798 410.205783,31 C410.205783,28.2385763 412.444359,26 415.205783,26 C417.967207,26 420.205783,28.2385763 420.205783,31 C420.205783,33.1436807 420.195526,35.8743868 420.173964,39.876825 C420.163162,41.8819604 420.114499,50.188685 420.104117,52.0460841 C419.922272,84.579483 419.957088,109.140941 420.382081,134.626678 C421.350676,192.710907 424.34522,231.685373 429.241092,239.560686 C432.826712,245.328377 450.381187,245.733985 476.564015,240.758675 C483.165074,239.504329 490.147395,237.95909 497.627273,236.13294 C505.680428,234.16683 526.367166,228.646231 525.542084,228.850708 C528.19879,228.190487 530.903284,229.804501 531.582985,232.470326 Z" id="Path-24"></path>
                    <path d="M418.033432,154.448131 C415.27207,154.466593 413.018577,152.243034 413.000114,149.481672 C412.981651,146.72031 415.205211,144.466817 417.966573,144.448354 L485.007355,144.000114 C487.768717,143.981651 490.02221,146.205211 490.040673,148.966573 C490.059136,151.727935 487.835576,153.981428 485.074214,153.999891 L418.033432,154.448131 Z" id="Path-25"></path>
                    <path d="M558.91853,57.7766768 C559.941243,58.4520778 559.941243,58.4520778 560.412434,58.986837 C560.979015,59.7820658 560.979015,59.7820658 561.156953,60.1801795 C561.357126,60.6288646 561.438372,60.9254014 561.53557,61.3679658 C561.610853,61.7107514 561.690675,62.1614101 561.787761,62.7714544 C561.95758,63.8385165 562.188464,65.4545599 562.479863,67.6091751 C563.882674,77.9815922 566.662567,100.688731 569.743194,126.729088 C569.942348,126.48416 570.175073,126.237483 570.445017,125.988476 C589.205394,108.683198 599.745019,85.319429 602.96546,54.9794842 C603.773576,47.3661849 603.984875,40.2780923 603.08294,33.5921638 C601.89378,24.7770823 598.982307,19.5531965 594.483766,18.3267717 C592.239715,17.7149823 582.391066,17.9488955 572.279738,18.9475801 C567.167158,19.4525438 562.464196,20.0983945 558.970763,20.7859927 C557.213473,21.1318731 555.813874,21.4786948 554.86838,21.7968339 C554.796468,21.8210308 554.728981,21.8444732 554.666164,21.8669475 C552.573378,25.6841347 552.566565,30.7152491 554.210625,39.2223565 C554.391386,40.1576979 554.565427,41.0187198 554.880275,42.5494194 C555.886929,47.4434747 556.237449,49.3064415 556.563572,51.8587409 C556.794541,53.6663413 557.023916,55.4607732 557.251697,57.2420573 C557.738854,57.2853874 558.116991,57.4428669 558.91853,57.7766768 Z M575.312883,174.663005 C577.861166,197.012927 579.933789,215.855437 581.218761,228.45134 C581.92062,235.331299 582.382752,240.297717 582.585318,243.190348 C582.720964,245.127364 582.75539,246.095428 582.644022,246.900676 C582.587077,247.312414 582.498759,247.702554 582.306242,248.17804 C582.042518,248.798001 582.042518,248.798001 581.265783,249.785889 C579.885196,250.973247 579.885196,250.973247 577.390134,251.322881 C575.230555,250.828135 575.230555,250.828135 574.256354,250.012583 C573.63651,249.361446 573.63651,249.361446 573.362025,248.933952 C573.14562,248.585104 573.006573,248.280726 572.886126,247.95867 C572.706125,247.477381 572.581499,246.975632 572.429229,246.236916 C571.953777,243.930334 571.067807,238.251736 569.755874,229.070189 C569.176042,228.253773 568.835149,227.255796 568.835149,226.178199 C568.835149,225.255295 568.836117,223.957167 568.837503,222.568415 C564.746063,193.310558 557.453136,137.718559 546.64422,53.126201 C546.36216,50.9187522 546.037665,49.1940979 545.085331,44.5641331 C544.762882,42.9964821 544.582725,42.1052001 544.392293,41.1198194 C542.167761,29.6090835 542.360812,22.3220341 546.794975,15.5668252 C549.164561,11.9568888 557.067168,10.4014505 571.296831,8.99600253 C582.76937,7.86287274 593.211211,7.61487069 597.114041,8.67888857 C606.501978,11.2382958 611.325469,19.8928009 612.993172,32.2552681 C614.027144,39.9199631 613.795568,47.688234 612.909598,56.0350072 C609.622655,87.0014676 599.04245,111.657538 580.302653,130.38454 C580.572943,130.738601 580.866588,131.119473 581.182622,131.52588 C583.157396,134.065366 585.926423,137.50155 589.338526,141.662887 C589.567205,141.94172 589.567205,141.94172 589.796018,142.220485 C593.56536,146.811784 601.917284,156.844304 602.027872,156.991242 C611.252298,169.247718 617.084131,177.860579 620.708,184.229877 C622.609561,187.572052 625.105075,192.927478 625.276676,193.210802 C626.156507,194.663457 627.826351,196.366253 632.750517,200.63427 C636.107578,203.544 658.713605,222.59139 662.549937,225.83992 C664.65732,227.624409 664.919076,230.779394 663.134587,232.886776 C661.350098,234.994158 658.195112,235.255915 656.08773,233.471426 C652.312924,230.274995 629.619755,211.154181 626.200855,208.190852 C620.505838,203.2547 618.316778,201.022443 616.723221,198.391381 C616.197078,197.522688 613.623717,192.0002 612.016338,189.175077 C608.630561,183.22425 603.026134,174.947237 594.037918,163.004614 C594.099948,163.087033 586.047827,153.414643 582.067037,148.565786 C581.836324,148.284706 581.836324,148.284706 581.605673,148.003469 C578.143436,143.780991 575.327538,140.286642 573.288524,137.664546 C572.139543,136.186999 571.245871,134.997503 570.612144,134.094997 C572.173774,147.369473 573.785358,161.265731 575.312883,174.663005 Z" id="Path-26"></path>
                    <path d="M710.284272,72.2380733 C725.556755,93.7385534 732.267745,103.368019 740.338444,115.639087 C744.999557,122.726062 748.457139,128.572566 755.918171,141.66216 C764.469676,156.664889 768.377659,163.19656 773.717973,170.961506 C776.516181,175.030168 777.196241,176.270229 785.503697,191.920182 C786.437114,193.678595 787.215827,195.13348 787.960154,196.506089 C792.569584,205.006309 795.892132,210.318392 798.507464,213.101159 C807.402943,187.778038 808.820913,157.278384 804.439272,119.201998 C802.525177,102.568551 799.846952,86.4181733 795.202055,61.8389431 C794.945763,60.4827357 791.983164,44.9195681 791.151361,40.4737563 C790.643517,37.7594323 792.432222,35.1473486 795.146546,34.6395041 C797.86087,34.1316596 800.472954,35.9203647 800.980798,38.6346887 C801.809135,43.0619779 804.769251,58.6121002 805.028139,59.9820441 C809.714418,84.7802564 812.425459,101.12852 814.373711,118.058792 C818.95747,157.891581 817.399733,190.031922 807.701865,217.239426 C804.561899,226.048646 797.223282,226.336609 791.220575,219.949607 C787.810616,216.321341 784.195445,210.541414 779.169463,201.273033 C778.409121,199.87089 777.617191,198.391311 776.671001,196.608837 C768.692333,181.578268 767.942245,180.210516 765.478502,176.628173 C759.925625,168.554156 755.921121,161.861163 747.28862,146.716335 C739.874259,133.70862 736.489247,127.984825 731.983531,121.134125 C724.000393,108.996189 717.335009,99.4321624 702.149671,78.0543635 C694.180081,66.8348376 688.666015,59.0252454 684.036979,52.3374281 C685.492686,71.8425987 686.727886,93.1488904 688.232353,122.669826 C688.395875,125.878484 688.528393,128.497385 688.815887,134.192894 C691.071134,178.871305 692.211056,198.664208 694.174303,223.553932 C694.391443,226.306805 692.335826,228.714477 689.582953,228.931618 C686.83008,229.148758 684.422408,227.093141 684.205267,224.340268 C682.232146,199.325363 681.088594,179.469422 678.828603,134.697025 C678.541189,129.003115 678.408726,126.385312 678.245313,123.178793 C676.266668,84.3534444 674.756872,59.8060123 672.598177,34.8782974 C672.219669,33.6865463 672.072705,32.335905 672.015338,30.7378771 C671.988001,29.9763987 671.996687,29.2444861 672.045578,28.7107983 C672.070868,28.434733 672.105216,28.1854946 672.175812,27.8824291 C672.26421,27.4751607 672.26421,27.4751607 672.747265,26.4471711 C673.235117,25.6346475 673.235117,25.6346475 674.901867,24.466328 C677.740551,23.7841715 677.740551,23.7841715 679.982631,24.9116973 C681.149719,25.9991629 681.149719,25.9991629 681.502821,26.6589628 C681.738165,27.1572756 681.738165,27.1572756 681.840903,27.4637079 C681.970429,27.9199197 681.970429,27.9199197 682.017145,28.1717257 C682.057069,28.3932069 682.082554,28.601713 682.103351,28.8329148 C682.201479,29.9238417 682.298234,31.0120751 682.393708,32.098809 C689.789904,43.2382509 696.178599,52.3802195 710.284272,72.2380733 Z M682.170034,31.9186738 C682.170651,31.9206935 682.171262,31.9227051 682.171865,31.9247088 C682.170385,31.9197962 682.168305,31.9117666 682.165737,31.90085 L682.170034,31.9186738 Z" id="Path-27"></path>
                    <path d="M857.203933,39.6469074 C854.444805,39.759493 852.116822,37.6140468 852.004236,34.8549191 C851.89165,32.0957914 854.037097,29.7678078 856.796224,29.6552222 L946.27069,26.004236 C949.029818,25.8916504 951.357801,28.0370966 951.470387,30.7962243 C951.582973,33.555352 949.437526,35.8833356 946.678399,35.9959212 L857.203933,39.6469074 Z" id="Path-28"></path>
                    <path d="M845.798514,35.998762 C845.799197,33.2373384 848.038328,30.9993164 850.799751,31.0000002 C853.561175,31.0006839 855.799197,33.2398143 855.798513,36.001238 C855.789888,70.8384223 853.911976,100.445258 850.368974,132.719855 C849.863481,137.324593 849.347026,141.802875 848.672794,147.488365 C848.481695,149.099823 847.756004,155.187135 847.875109,154.18689 C847.56556,156.78648 847.344837,158.655485 847.137236,160.442222 C846.041646,169.871554 845.450987,175.948387 845.169806,181.208386 C844.541536,192.961282 845.646212,199.580372 848.765608,203.55906 C851.953995,207.625745 858.196273,210.004249 869.706341,211.091439 C880.520635,212.11291 894.325607,212.023413 923.092328,211.007579 C926.048233,210.903197 928.48223,210.567161 934.054568,209.604738 C937.007935,209.09465 938.333795,208.877167 940.022947,208.643963 C942.758424,208.266304 945.28212,210.177693 945.659779,212.91317 C946.037438,215.648647 944.126049,218.172342 941.390572,218.550002 C939.850469,218.762628 938.598645,218.967966 935.756513,219.458843 C929.737852,220.498352 927.005041,220.875643 923.445236,221.00135 C894.217886,222.03345 880.17219,222.124508 868.765971,221.047126 C854.787625,219.726793 846.155802,216.437798 840.895975,209.729058 C835.889077,203.342922 834.437303,194.64406 835.184063,180.674582 C835.479149,175.154475 836.086142,168.90959 837.204061,159.28809 C837.412975,157.490041 837.634683,155.612699 837.945259,153.004483 C837.826524,154.001622 838.551704,147.918596 838.742377,146.310736 C839.413482,140.65161 839.926855,136.200048 840.428689,131.628642 C843.934537,99.6924966 845.789986,70.4398098 845.798514,35.998762 Z" id="Path-29"></path>
                    <path d="M848,98 C845.238576,98 843,95.7614237 843,93 C843,90.2385763 845.238576,88 848,88 L946.366967,88 C949.128391,88 951.366967,90.2385763 951.366967,93 C951.366967,95.7614237 949.128391,98 946.366967,98 L848,98 Z" id="Path-30"></path>
                    <path d="M1046,20 C1046,17.2385763 1048.23858,15 1051,15 C1053.76142,15 1056,17.2385763 1056,20 L1056,212.244305 C1056,215.005729 1053.76142,217.244305 1051,217.244305 C1048.23858,217.244305 1046,215.005729 1046,212.244305 L1046,20 Z" id="Path-31"></path>
                    <path d="M989.060494,20.0562284 C986.299272,20.0896339 984.033779,17.878302 984.000374,15.1170803 C983.966968,12.3558586 986.1783,10.0903656 988.939522,10.0569601 C1013.22416,9.76316226 1035.60696,8.40546441 1072.68594,5.37082662 C1075.49343,5.14105466 1077.48384,4.97691884 1082.9077,4.5286489 C1113.96167,1.96210887 1128.20815,0.902738856 1146.00847,0.00644191157 C1148.7664,-0.132427714 1151.11472,1.99073999 1151.25359,4.74866972 C1151.39246,7.50659944 1149.26929,9.85491929 1146.51136,9.99378892 C1128.85272,10.8829516 1114.6798,11.9368523 1083.73137,14.4946696 C1078.30472,14.9431701 1076.31276,15.1074339 1073.50164,15.3375029 C1036.20749,18.389751 1013.63565,19.7589159 989.060494,20.0562284 Z" id="Path-32"></path>
                </g>
                <g id="Group-2" transform="translate(1613.000000, 332.000000)">
                    <path d="M115.347872,213.049398 C115.343455,213.047104 115.339211,213.044867 115.335141,213.042686 C115.344956,213.047946 115.355998,213.054189 115.368348,213.06158 L115.347872,213.049398 Z M121.061566,214.739869 C122.11735,215.001031 126.563597,216.065492 127.652959,216.333239 C134.260877,217.957353 138.252564,219.198166 141.100289,220.7984 C153.463675,227.745812 159.045363,238.547028 158.632402,251.961556 C158.319744,262.117854 154.717795,273.16681 148.481624,285.793904 C130.337791,322.531813 102.412904,339.308792 64.4847796,334.196984 C38.7436034,330.727686 6.36873192,299.789093 2.04076312,274.477122 C-0.0988349995,261.963759 -0.426600345,249.114108 0.459119374,231.877396 C0.66124136,227.943963 0.861679674,224.736143 1.32110504,217.804684 C1.66996038,212.54142 1.81188487,210.336574 1.97774342,207.496666 C2.17174691,204.174846 2.35076122,200.486163 2.57392295,195.364268 C4.35915724,154.390481 5.07290383,142.95584 7.96894888,121.51495 C14.5145219,73.0547536 27.9220428,38.7252066 52.1080492,20.7773599 C53.1741102,19.9862619 54.2817591,19.1351681 55.6864435,18.0338293 C56.0193983,17.772777 56.3665675,17.4996702 56.7938814,17.1628251 C57.0133592,16.9898141 57.7786249,16.3860973 57.9123324,16.2806677 C67.8791538,8.42173342 73.1625733,5.07873445 80.5829449,3.10267671 C91.1473854,0.289348007 107.493971,-0.963210312 120.378588,0.844261043 C138.848913,3.43530286 150.585472,11.9190332 150.585472,27.2707819 C150.585472,30.0322057 148.346896,32.2707819 145.585472,32.2707819 C142.824048,32.2707819 140.585472,30.0322057 140.585472,27.2707819 C140.585472,18.1199425 133.130309,12.7310044 118.989377,10.7472956 C107.486309,9.13362972 92.477318,10.2836947 83.1562789,12.7659035 C77.4909793,14.2745825 73.0160739,17.1060072 64.1041104,24.1331759 C63.9718911,24.237432 63.205881,24.8417361 62.9845712,25.0161913 C62.5509621,25.3579988 62.1973426,25.6361799 61.8565438,25.9033822 C60.3881572,27.0546664 59.2155905,27.9556418 58.0672445,28.8078014 C36.6466096,44.7035333 24.0932334,76.8460688 17.8789574,122.853506 C15.0396416,143.8744 14.3349277,155.164333 12.5644447,195.799557 C12.3393159,200.966597 12.1582049,204.698484 11.9607325,208.0797 C11.7928227,210.954731 11.6498239,213.176268 11.2992112,218.466044 C10.8430284,225.348583 10.6446981,228.522666 10.445943,232.390575 C9.59474466,248.955479 9.90556217,261.14071 11.8977128,272.791731 C15.4853536,293.77392 44.3924734,321.398605 65.820465,324.286588 C99.2719128,328.795047 123.187578,314.426766 139.515483,281.365776 C152.058335,255.968819 152.589176,238.725104 136.201423,229.516262 C134.441223,228.527144 130.939432,227.438616 125.266164,226.044223 C124.218497,225.786724 119.762532,224.719936 118.660308,224.447286 C116.168795,223.830977 114.420205,223.349399 113.014574,222.866755 C110.684293,222.066618 109.264781,221.385135 108.258834,219.971334 L97.4122746,218.928111 C91.9679182,218.404472 91.1963224,210.773507 96.425657,209.170611 C112.092572,204.368388 124.803983,201.430365 153.506314,195.49971 C167.742812,192.558076 174.051902,191.215979 181.882507,189.40607 C184.573,188.78421 187.258193,190.461167 187.880054,193.15166 C188.501914,195.842152 186.824957,198.527345 184.134464,199.149206 C176.202566,200.982527 169.8427,202.335425 155.529832,205.292839 C138.998517,208.708643 127.851786,211.115741 118.410389,213.454333 C119.337465,214.306054 120.138959,214.511649 121.061566,214.739869 Z" id="Path-33"></path>
                    <path d="M227.749993,21.5448668 C227.744686,21.5288266 227.741324,21.5192357 227.740218,21.516633 C227.74085,21.5181205 227.741486,21.5196125 227.742126,21.521109 L227.749993,21.5448668 Z M232.328954,60.1426869 C231.657719,72.7736945 231.247474,78.7029184 230.46781,85.5817117 C220.972383,169.357642 215.440046,250.599075 213.999204,330.515879 C213.949426,333.276854 211.67086,335.474714 208.909885,335.424935 C206.14891,335.375157 203.951051,333.096591 204.000829,330.335616 C205.447532,250.093755 211.0013,168.537613 220.531431,84.4554914 C221.28178,77.8353375 221.682063,72.050092 222.292383,60.566271 C223.420474,39.3067754 224.244673,30.2718921 226.582747,19.0442914 C226.769635,18.1468453 226.99936,17.424746 227.435554,16.6830183 C228.796298,14.3691399 231.801423,13.0205359 234.706852,14.8585801 C235.922332,15.6275219 236.459622,16.4665121 236.943669,17.605561 C237.144695,18.0786121 237.315671,18.5950832 237.484946,19.2003359 C237.728451,20.0709975 237.971506,21.1368778 238.279164,22.6283537 C238.432905,23.3736656 238.978996,26.1115363 239.0678,26.5486564 C239.725936,29.7881733 240.216642,31.7804441 240.616138,32.7568504 C260.902374,82.3383275 279.69751,127.17123 298.184719,169.900653 C301.03533,176.489262 303.514344,181.709932 309.240396,193.414393 C315.495388,206.200047 318.211005,211.947465 321.318639,219.282118 C325.632516,229.463751 329.332131,239.980232 332.382742,250.712756 C336.075924,263.705937 338.734948,274.154528 344.493842,297.692238 C347.362302,309.416188 348.648324,314.620286 350.298814,321.105858 C350.979851,323.781984 349.362513,326.503502 346.686387,327.18454 C344.010261,327.865577 341.288743,326.248239 340.607705,323.572113 C338.947083,317.046725 337.656134,311.822688 334.78035,300.068806 C329.050756,276.650851 326.412001,266.281907 322.763766,253.446853 C319.825518,243.109642 316.263041,232.982988 312.111,223.183321 C309.097337,216.070459 306.433377,210.432369 300.27774,197.849803 C294.46335,185.964775 291.939842,180.650402 289.006901,173.871505 C271.142511,132.581601 252.994506,89.3388608 233.498645,41.7644809 C233.085697,46.7730883 232.725657,52.666413 232.328954,60.1426869 Z" id="Path-34"></path>
                    <path d="M222,218.41372 C219.238576,218.41372 217,216.175144 217,213.41372 C217,210.652297 219.238576,208.41372 222,208.41372 C237.189972,208.41372 248.781291,208.569721 258.530794,208.848567 C262.682188,208.967301 272.437641,209.341108 273.93811,209.367555 C279.225976,209.460757 277.401718,209.704168 300.299794,206.062784 C303.02695,205.629096 305.589319,207.488318 306.023007,210.215473 C306.456695,212.942629 304.597473,215.504998 301.870318,215.938686 C278.087563,219.720758 279.931335,219.474743 273.76188,219.366002 C272.137024,219.337362 262.303014,218.960545 258.2449,218.844479 C248.593622,218.568442 237.097283,218.41372 222,218.41372 Z" id="Path-35"></path>
                    <path d="M418.555091,181.691025 C418.909226,181.861968 418.909226,181.861968 419.264389,182.033398 C428.889721,186.679869 433.122692,189.047313 437.21052,192.637488 C447.219462,201.427939 456.690334,209.643606 472.395931,223.195793 C473.355888,224.024129 474.330575,224.865067 475.658856,226.010998 C477.290403,227.418543 478.146845,228.157406 478.921965,228.826145 C511.904704,257.282214 528.214175,271.568947 547.041334,288.765407 C549.080258,290.627731 549.223421,293.790317 547.361096,295.829241 C545.498772,297.868165 542.336186,298.011327 540.297262,296.149003 C521.561279,279.035821 505.302889,264.793835 472.389583,236.39767 C471.61458,235.729031 470.758258,234.990273 469.126643,233.582669 C467.798136,232.436542 466.823226,231.595412 465.862974,230.766821 C450.136771,217.196853 440.648105,208.965751 430.611613,200.151104 C427.461674,197.38464 423.674226,195.266371 414.917081,191.039003 C414.562675,190.867939 414.562675,190.867939 414.207448,190.696468 C411.546619,189.411874 409.317719,188.310937 407.397303,187.312946 C408.619998,198.287148 409.108448,205.021938 409.418837,212.970534 C410.143432,231.52636 410.317816,246.357063 410.406839,279.703535 C410.451229,296.331321 410.487728,303.717657 410.596184,312.941402 C410.628651,315.702635 408.41655,317.967377 405.655317,317.999844 C402.894084,318.032311 400.629343,315.82021 400.596875,313.058977 C400.487945,303.794841 400.451346,296.388312 400.406875,279.730231 C400.318175,246.504968 400.144741,231.755061 399.426452,213.360731 C399.057705,203.917636 398.416588,196.123365 396.500252,180.18914 C391.128636,175.393184 388.642036,169.706021 389.8621,162.990453 C390.436874,159.82674 391.580667,157.003535 393.258218,154.47308 C392.824125,151.114344 392.358512,147.527594 391.858859,143.688216 C391.034243,137.351804 390.410042,132.485754 389.817723,127.74552 C383.147631,74.3658298 381.850867,43.8758357 387.824655,25.2415522 C389.929477,18.6758918 395.207051,15.4689892 402.485798,15.0573085 C407.214801,14.7898395 411.66172,15.4435775 420.783431,17.3355968 C421.088614,17.3989248 421.088614,17.3989248 421.393055,17.4621621 C429.792159,19.2069103 433.230235,19.7587473 436.656355,19.7034218 C438.348659,19.6760942 439.70881,19.6363627 442.826269,19.5318926 C444.509175,19.4754963 445.275273,19.4508045 446.225108,19.423788 C455.139919,19.1702208 460.965238,19.4302846 466.978435,20.6893026 C479.601176,23.3321993 488.476482,34.0630241 492.80762,49.0932008 C496.511016,61.9449498 496.40961,76.7900162 492.564279,86.949519 C485.84989,104.689179 467.443893,124.771623 448.116256,137.565155 C442.881882,141.029941 437.728497,143.106709 426.621924,146.798309 C426.20893,146.935548 426.20893,146.935548 425.79699,147.072402 C416.079461,150.3011 411.858678,151.951753 407.811232,154.413989 C406.207872,155.389382 404.85179,156.402947 403.728906,157.480199 C404.585311,164.137063 405.308444,169.842248 405.92141,174.822322 C408.888747,176.813414 413.016891,179.017295 418.555091,181.691025 Z M402.61396,145.870666 C407.540584,142.873588 412.180383,141.059067 422.643924,137.582504 C423.056297,137.445505 423.056297,137.445505 423.467792,137.308765 C433.714439,133.902987 438.359803,132.030947 442.596631,129.226465 C460.320323,117.494632 477.338915,98.9259598 483.211781,83.4096361 C486.246647,75.39141 486.333072,62.7395202 483.19862,51.8621575 C479.792391,40.041658 473.337805,32.2376411 464.929114,30.4770646 C459.868636,29.4175228 454.700029,29.1867771 446.509426,29.4197454 C445.582015,29.446124 444.827321,29.4704483 443.161194,29.5262823 C439.985642,29.6326991 438.587449,29.6735419 436.817816,29.7021182 C432.356676,29.7741573 428.56695,29.165878 419.359172,27.2531436 C419.055491,27.1900644 419.055491,27.1900644 418.752466,27.1271841 C403.758907,24.0172298 398.625363,24.3075795 397.34729,28.2943233 C392.013167,44.9332759 393.285369,74.8457679 399.740556,126.505607 C400.330404,131.22607 400.952629,136.076711 401.775239,142.397706 C401.938927,143.655504 402.098991,144.886389 402.255516,146.09122 C402.374227,146.017337 402.493709,145.94382 402.61396,145.870666 Z" id="Path-36"></path>
                    <path d="M629.525913,306.840182 C629.525913,309.601606 627.287337,311.840182 624.525913,311.840182 C621.764489,311.840182 619.525913,309.601606 619.525913,306.840182 C619.525913,227.887781 615.551745,156.615169 606.717849,86.7114939 C606.159927,82.2965893 604.425871,77.5341908 600.432348,68.588641 C600.26972,68.2243506 600.108399,67.863727 599.869816,67.3309121 C595.084869,56.6449295 593.401754,52.3083798 592.445238,46.870213 C591.00256,38.6680237 593.002676,32.0080143 599.370816,27.587289 C605.093614,23.6145559 611.544807,23.0543893 618.451685,25.349184 C623.654261,27.0777283 628.888443,30.2485859 635.552676,35.2951764 C637.332729,36.6431485 638.988721,37.9440472 641.738615,40.1371753 C650.446206,47.081756 653.513002,49.3599738 657.51105,51.5462324 C671.763193,59.3397551 686.303356,68.8842757 698.454691,78.9767505 C714.199741,92.0540389 725.084327,105.268751 729.550163,118.385327 C749.964309,178.343579 716.933161,279.192265 664.093952,314.056967 C656.242745,319.237401 648.025434,321.175006 632.847922,322.754123 C632.124682,322.829371 631.654195,322.877446 630.210402,323.024223 C621.132193,323.947117 617.144718,324.500868 612.727654,325.646972 C610.054742,326.340518 607.32569,324.735924 606.632145,322.063013 C605.938599,319.390101 607.543192,316.661049 610.216104,315.967503 C615.297603,314.648997 619.604647,314.050867 629.199011,313.0755 C630.634347,312.929583 631.100649,312.881936 631.813076,312.807813 C645.452023,311.388773 652.498526,309.727239 658.586539,305.710207 C707.581145,273.382275 739.048268,177.308777 720.0838,121.608365 C713.120508,101.156528 685.616496,78.3126558 652.713219,60.3201041 C647.998884,57.7421563 644.731292,55.314774 635.503438,47.9552675 C632.814981,45.8111373 631.211174,44.5512337 629.515673,43.2672902 C617.636728,34.2717803 610.630752,31.9440607 605.073387,35.8019516 C599.953844,39.3559087 601.023755,45.438769 608.996605,63.2441378 C609.236599,63.7801046 609.399239,64.1436768 609.563737,64.5121546 C613.964656,74.3702765 615.914534,79.725411 616.638943,85.4577413 C625.528691,155.803379 629.525913,227.489444 629.525913,306.840182 Z" id="Path-37"></path>
                    <path d="M773,26 C770.238576,26 768,23.7614237 768,21 C768,18.2385763 770.238576,16 773,16 L877.204018,16 C879.965441,16 882.204018,18.2385763 882.204018,21 C882.204018,23.7614237 879.965441,26 877.204018,26 L773,26 Z" id="Path-38"></path>
                    <path d="M775.715332,31.0190562 C775.704808,28.2576525 777.934836,26.0105611 780.69624,26.0000371 C783.457644,25.9895131 785.704735,28.2195417 785.715259,30.9809454 C785.916201,83.7063869 782.469092,128.494466 775.81664,177.48719 C774.982615,183.629457 774.115701,189.736691 773.056708,196.992848 C772.614681,200.021595 770.904863,211.624279 770.501541,214.391994 C768.576017,227.605502 767.504592,235.795693 766.804398,243.170176 C765.150859,260.585364 766.016562,271.08629 769.822947,278.007414 C777.427994,291.835619 799.639543,295.254038 860.92844,291.62194 C865.767719,291.335155 869.691056,290.578127 878.61252,288.450225 C883.285995,287.335532 885.381537,286.859682 888.048001,286.345174 C890.759411,285.821994 893.381564,287.595905 893.904744,290.307315 C894.427924,293.018725 892.654013,295.640878 889.942603,296.164058 C887.466276,296.641878 885.464723,297.096385 880.932588,298.177367 C871.442831,300.440815 867.137702,301.271511 861.520021,301.604426 C828.987823,303.532347 808.447671,303.512071 793.596947,301.226504 C776.97681,298.668618 766.652129,292.993299 761.060663,282.826375 C756.023605,273.667526 755.019825,261.491741 756.849172,242.224946 C757.56937,234.639766 758.657926,226.318631 760.606057,212.949985 C761.010874,210.17201 762.720901,198.567901 763.161535,195.548707 C764.216105,188.322848 765.078578,182.24691 765.907571,176.141693 C772.501839,127.577478 775.914347,83.2389636 775.715332,31.0190562 Z" id="Path-39"></path>
                    <path d="M778,169 C775.238576,169 773,166.761424 773,164 C773,161.238576 775.238576,159 778,159 L858.867622,159 C861.629046,159 863.867622,161.238576 863.867622,164 C863.867622,166.761424 861.629046,169 858.867622,169 L778,169 Z" id="Path-40"></path>
                    <path d="M938.192074,209.307248 C939.066609,253.198891 939.358231,272.710741 939.358231,297.106288 C939.358231,299.867711 937.119655,302.106288 934.358231,302.106288 C931.596807,302.106288 929.358231,299.867711 929.358231,297.106288 C929.358231,272.799302 929.06727,253.331686 928.194058,209.506457 C926.443662,121.656612 926.443662,82.6059509 929.367182,33.8135564 C929.448061,32.4637167 929.641325,31.3828089 930.096831,30.3669408 C931.19025,27.9283991 933.790958,26.3229672 936.774558,27.2810937 C939.029248,28.0051449 940.032061,29.356762 941.535085,32.1726439 C942.868845,34.6714141 943.251606,35.5624379 947.253409,45.1692362 C947.544226,45.8673768 947.799029,46.4764138 948.042009,47.0535996 C950.191946,52.1606608 951.675243,55.3454182 952.821694,57.1896893 C957.273477,64.3511738 961.033387,70.0160394 969.589354,82.6322625 C980.923081,99.3444521 985.858845,106.896066 991.534322,116.623426 C1000.24596,131.554551 1006.83228,143.712975 1021.3041,171.1169 C1036.58119,200.045702 1043.50503,212.789568 1052.69414,228.360099 C1055.39565,232.937672 1057.56041,237.040194 1061.6812,245.183717 C1061.59919,245.021647 1062.46808,246.73911 1062.70166,247.20044 C1072.82129,267.186713 1079.0792,276.877666 1088.28826,284.062943 C1088.50397,281.952951 1088.57024,279.024472 1088.54156,274.779338 C1088.5381,274.268011 1088.5345,273.835027 1088.52663,272.947385 C1088.47069,266.642998 1088.50876,264.197209 1088.82698,261.623927 C1089.15507,258.970828 1089.40651,256.952795 1090.02179,252.026513 C1094.92579,212.762036 1096.74057,195.144249 1097.5752,173.234148 C1098.52963,148.179233 1098.49752,128.085506 1097.82687,82.8196118 C1097.49056,60.1205594 1097.37438,50.0278101 1097.3542,37.403128 C1097.34979,34.6417078 1099.58478,32.399557 1102.3462,32.395144 C1105.10762,32.390731 1107.34977,34.625727 1107.35419,37.3871472 C1107.37427,49.9530836 1107.49012,60.0164741 1107.82577,82.67147 C1108.49903,128.113673 1108.53133,148.324935 1107.56796,173.614806 C1106.71875,195.907458 1104.88424,213.716773 1099.94469,253.26585 C1099.32993,258.188025 1099.0788,260.20352 1098.75138,262.851193 C1098.51075,264.797094 1098.47505,267.090336 1098.52623,272.858662 C1098.53417,273.7532 1098.53781,274.191184 1098.54133,274.711781 C1098.58721,281.50277 1098.42135,285.290532 1097.70083,288.47105 C1097.0801,291.211074 1096.05988,293.295137 1094.07307,294.692434 C1091.3145,296.632509 1088.11537,296.210242 1085.29694,294.264933 C1078.26284,289.409938 1072.31428,283.020619 1066.77932,274.83127 C1062.61356,268.667736 1059.42153,262.859538 1053.78009,251.717691 C1053.54563,251.254636 1052.6758,249.535307 1052.75852,249.698777 C1048.73266,241.742857 1046.63976,237.776519 1044.08206,233.442615 C1034.78612,217.69108 1027.81209,204.854833 1012.49003,175.840872 C998.055383,148.507338 991.513921,136.431717 982.896991,121.662921 C977.373102,112.195374 972.520321,104.770721 961.400112,88.3733751 C952.682808,75.5192513 948.873871,69.780519 944.328867,62.4690729 C942.806361,60.0198512 941.184957,56.5385671 938.825394,50.93355 C938.717831,50.6780409 938.60818,50.4168497 938.494434,50.1452316 C936.468142,92.0031429 936.639167,131.369104 938.192074,209.307248 Z" id="Path-41"></path>
                </g>
            </g>
        </g>
    </g>
</svg>