<?xml version="1.0" encoding="UTF-8"?>
<svg width="1199px" height="1002px" viewBox="0 0 1199 1002" version="1.1" xmlns="http://www.w3.org/2000/svg" xmlns:xlink="http://www.w3.org/1999/xlink">
    <!-- Generator: Sketch 50.2 (55047) - http://www.bohemiancoding.com/sketch -->
    <title>Group</title>
    <desc>Created with Sketch.</desc>
    <defs></defs>
    <g id="Page-1" stroke="none" stroke-width="1" fill="none" fill-rule="evenodd">
        <g id="Artboard-2-Copy" transform="translate(-1521.000000, -330.000000)" fill="#000000" fill-rule="nonzero">
            <g id="Group" transform="translate(1520.000000, 330.000000)">
                <path d="M188.463728,44 C188.463728,41.2385763 190.702304,39 193.463728,39 C196.225151,39 198.463728,41.2385763 198.463728,44 C198.463728,55.2626579 198.4057,64.2678018 198.231679,84.5227803 C197.884376,124.946811 197.884376,142.898325 198.462066,165.301619 C199.168873,192.712149 208.589008,212.18886 221.999709,217.642104 C235.471056,223.120009 252.436701,214.009723 268.111054,189.52263 C280.470306,170.214519 284.044603,146.882092 281.089696,117.139864 C279.858131,104.743702 277.836806,93.0585137 273.918683,73.8702617 C273.9718,74.1303908 271.952154,64.2840283 271.40273,61.5644499 C270.470524,56.9501582 269.737,53.1824176 269.087937,49.6313998 C268.591423,46.9149803 270.391013,44.3103833 273.107432,43.8138697 C275.823852,43.3173561 278.428449,45.1169454 278.924962,47.833365 C279.56132,51.3148717 280.283739,55.0255691 281.2047,59.5842009 C281.750653,62.286597 283.766933,72.1165536 283.716508,71.869606 C287.698684,91.3715449 289.766412,103.324991 291.040706,116.151226 C294.198094,147.931504 290.294081,173.416263 276.53336,194.913805 C258.555997,222.99875 237.039329,234.552865 218.232887,226.90553 C200.462354,219.67943 189.26389,196.525917 188.465389,165.559393 C187.88376,143.00337 187.88376,124.975475 188.232048,84.4368684 C188.405823,64.2105281 188.463728,55.2244729 188.463728,44 Z" id="Path-7"></path>
                <path d="M384.338381,130.106355 C384.945002,130.148788 385.275939,130.171945 385.55902,130.191886 C386.027744,130.224905 386.420794,130.253007 386.798255,130.28061 C393.729602,130.787493 397.584073,131.33469 400.746523,132.621469 C406.440398,134.938266 410.867689,138.047072 413.536143,142.418396 C416.246259,146.85797 415.517368,152.512248 412.703741,159.395666 C411.750327,161.72815 410.560996,164.156266 409.187158,166.645115 C408.026603,168.74758 406.79141,170.791577 405.536936,172.734515 C405.081963,173.43918 404.650424,174.090131 404.240151,174.695326 C403.984881,175.071874 403.780482,175.36826 403.584494,175.650355 C386.878034,199.868 367.524646,206.625025 341.192791,196.319111 C328.104704,191.19662 322.61738,175.943066 322.047339,153.983211 C321.81355,144.976855 322.436848,135.467076 323.641283,125.669566 C323.922756,123.379908 324.219401,121.210587 324.54731,118.98285 C324.70927,117.882529 325.113996,115.229662 325.151596,114.971605 C330.436043,78.7032686 337.381519,60.5378442 351.080514,50.9743177 C364.033175,41.9318218 380.955486,41.1369254 416.572358,45.7671187 C419.310739,46.1231083 421.242049,48.6315916 420.88606,51.369973 C420.53007,54.1083543 418.021587,56.0396645 415.283205,55.6836749 C382.141059,51.3751958 366.953899,52.0885864 356.804781,59.1738769 C346.103656,66.6445333 339.955833,82.7237514 335.047108,116.413422 C335.003373,116.71359 334.59717,119.37614 334.440709,120.439096 C334.123687,122.592872 333.837587,124.685084 333.566566,126.889708 C332.417554,136.236383 331.824794,145.280238 332.043972,153.723715 C332.518166,171.991251 336.786347,183.855857 344.837442,187.006941 C366.68921,195.559412 381.195578,190.494671 395.353102,169.971957 C395.555661,169.680242 395.733754,169.422 395.962888,169.084004 C396.332704,168.538489 396.723174,167.949489 397.135871,167.3103 C398.27288,165.549292 399.391451,163.698282 400.432393,161.812509 C401.630883,159.641319 402.653856,157.552838 403.44718,155.612007 C404.347862,153.408527 404.917059,151.476442 405.115951,149.933559 C405.277528,148.680151 405.175593,147.915099 405.000797,147.628758 C403.653159,145.421126 400.873432,143.469226 396.977642,141.884056 C395.162588,141.145524 391.871618,140.678324 386.068913,140.253978 C385.701462,140.227106 385.316855,140.199608 384.856317,140.167166 C384.575989,140.147419 384.247948,140.124465 383.639239,140.081885 C377.300601,139.637638 374.643406,139.343288 372.122066,138.586392 C366.300996,136.838929 363.898753,131.386788 368.631267,126.481254 C372.272567,122.706827 376.940843,120.703483 382.674339,119.983709 C386.655587,119.48391 389.901239,119.557606 397.258427,120.055137 C403.951248,120.50774 406.808016,120.572606 409.922196,120.181657 C412.662114,119.837692 415.162095,121.779996 415.50606,124.519914 C415.850025,127.259831 413.907721,129.759812 411.167803,130.103777 C407.186555,130.603577 403.940903,130.529881 396.583716,130.032349 C390.451666,129.617668 386.192482,129.547757 383.029188,130.012418 C383.445026,130.043046 383.881006,130.0743 384.338381,130.106355 Z" id="Path-8"></path>
                <path d="M449,57 C446.238576,57 444,54.7614237 444,52 C444,49.2385763 446.238576,47 449,47 L514.991253,47 C517.752677,47 519.991253,49.2385763 519.991253,52 C519.991253,54.7614237 517.752677,57 514.991253,57 L449,57 Z" id="Path-9"></path>
                <path d="M443.076992,76.7385658 C441.886782,76.0564508 441.886782,76.0564508 441.26344,75.376722 C440.534536,74.5093054 440.323652,73.8858179 440.160892,73.0470903 C440.115986,72.81568 440.089895,72.6099531 440.070501,72.3910036 C440.048614,72.143921 440.035592,71.8717744 440.026111,71.5271264 C440.011206,70.9853017 440.004027,70.2006595 440.001326,68.9674696 C439.998607,67.7256799 440.007275,59.6892059 440.007275,57 C440.007275,54.2385763 442.245851,52 445.007275,52 C447.768699,52 450.007275,54.2385763 450.007275,57 C450.007275,58.7301731 450.003733,62.6370639 450.001884,65.5466721 C450.354792,65.8840308 450.671588,66.2649884 450.947709,66.675458 C451.513914,67.5171516 451.932486,68.5177858 452.335247,69.8258944 C453.028896,72.0787639 453.763847,75.6228361 454.586375,80.7397486 C456.486165,92.5582653 458.830025,112.645432 461.69171,142.541293 C462.734733,153.437691 463.034005,164.76233 462.819791,178.804559 C462.740731,183.987111 462.631609,188.156795 462.355942,197.394039 C462.332568,198.177252 462.332568,198.177252 462.309258,198.959968 C462.263991,200.481718 461.829999,201.754415 461.047949,203.192086 C481.936058,209.100814 511.32538,209.941436 534.937524,205.657061 C537.654582,205.164056 540.256853,206.967008 540.749857,209.684067 C541.242862,212.401125 539.43991,215.003396 536.722852,215.4964 C509.737186,220.392895 475.941998,218.999755 453.207626,211.220612 C449.511709,209.95596 448.387139,206.430522 449.525693,203.248718 C449.777959,202.543734 450.109746,201.89437 450.553084,201.155463 C450.701462,200.908163 450.858484,200.657459 451.050293,200.358861 C451.154647,200.196409 451.508792,199.650728 451.507539,199.652666 C451.700044,199.355023 451.835083,199.14182 451.954804,198.945058 C452.125009,198.665324 452.24724,198.445039 452.324954,198.284069 C452.337891,197.849687 452.341543,197.727328 452.360392,197.095743 C452.634614,187.906917 452.742881,183.769912 452.820954,178.652027 C453.030007,164.948115 452.73986,153.968774 451.737211,143.494156 C448.894205,113.793427 446.571574,93.888195 444.713122,82.3268436 C444.376379,80.2319793 444.059722,78.44413 443.765499,76.9544686 C443.572619,76.8968304 443.349021,76.8254305 443.076992,76.7385658 Z" id="Path-10"></path>
                <path d="M458.445519,148.154183 C455.695079,148.400236 453.265941,146.37003 453.019888,143.61959 C452.773835,140.86915 454.804042,138.440013 457.554481,138.19396 L515.391475,133.019888 C518.141915,132.773835 520.571052,134.804042 520.817106,137.554481 C521.063159,140.304921 519.032952,142.734059 516.282512,142.980112 L458.445519,148.154183 Z" id="Path-11"></path>
                <path d="M560.819598,49.9662586 C560.838233,47.2048977 563.091865,44.981479 565.853226,45.0001138 C568.614587,45.0187487 570.838005,47.2723806 570.819371,50.0337414 C570.633221,77.6178851 570.732995,98.4139561 571.040657,117.048011 C571.093174,120.228769 571.14938,123.228951 571.219747,126.704697 C571.235747,127.494988 571.349952,133.014159 571.377992,134.442349 C571.484444,139.864481 571.519332,143.076402 571.48965,146.041777 C571.423106,152.689914 571.00633,157.772863 569.851383,166.136614 C569.119972,171.433261 564.372129,202.295333 563.943879,205.129487 C563.531301,207.859915 560.983391,209.738905 558.252962,209.326328 C555.522534,208.91375 553.643544,206.36584 554.056121,203.635411 C554.497774,200.712565 559.226333,169.975844 559.945385,164.7687 C561.045498,156.802031 561.428158,152.135163 561.490151,145.941687 C561.518584,143.101127 561.484554,139.968244 561.379919,134.63864 C561.352004,133.216785 561.237891,127.702096 561.221796,126.907107 C561.151195,123.419827 561.094765,120.407674 561.04202,117.213096 C560.733073,98.5012477 560.632927,77.6276527 560.819598,49.9662586 Z" id="Path-12"></path>
                <path d="M669.900424,32.9402699 C669.381127,30.2281135 671.158791,27.6085033 673.870947,27.0892065 C676.583104,26.5699098 679.202714,28.3475738 679.722011,31.0597301 C687.294644,70.6096936 688.443436,170.087007 680.05721,199.173865 C679.697909,200.420066 679.212719,201.4609 678.422314,202.367392 C677.040101,203.952611 674.946026,204.735124 672.781201,204.223074 C670.476358,203.677904 669.236443,202.291754 667.872709,199.981814 C666.659039,197.926059 666.41201,197.361553 663.214134,189.726361 C662.449966,187.901847 661.890667,186.605089 661.348411,185.418633 C660.360312,183.256671 659.5395,181.731641 658.911723,180.884267 C659.604274,181.819074 626.561389,141.895789 611.452304,122.400687 C607.626518,117.464313 603.979697,112.670225 600.520308,108.021946 C581.362269,82.2798476 568.730985,62.1345338 564.255177,48.6671471 C563.384272,46.046654 564.802593,43.2163159 567.423086,42.3454102 C570.043579,41.4745045 572.873917,42.8928253 573.744823,45.5133185 C577.771436,57.6291114 590.017897,77.1606803 608.542472,102.051612 C611.961409,106.645538 615.56906,111.388133 619.35638,116.274874 C634.304879,135.562773 667.443208,175.601376 666.946872,174.931421 C668.089712,176.474026 669.187517,178.513697 670.443515,181.261821 C671.039687,182.566244 671.635741,183.948222 672.437791,185.863182 C678.044075,149.959052 676.468379,67.2430513 669.900424,32.9402699 Z" id="Path-13"></path>
                <path d="M724,40 C721.238576,40 719,37.7614237 719,35 C719,32.2385763 721.238576,30 724,30 L831.57312,30 C834.334543,30 836.57312,32.2385763 836.57312,35 C836.57312,37.7614237 834.334543,40 831.57312,40 L724,40 Z" id="Path-14"></path>
                <path d="M715.690253,35.9860904 C715.697935,33.2246774 717.94273,30.9923373 720.704143,31.0000193 C723.465556,31.0077014 725.697896,33.2524965 725.690214,36.0139096 C725.604176,66.9415058 722.732815,94.0541248 717.271286,125.286063 C717.130334,126.092104 711.195425,158.124752 710.190039,165.189822 C708.59391,176.406173 708.590423,183.536689 710.256303,188.306709 C713.508274,197.618279 725.839765,200.299269 757.294907,196.190137 C768.422086,194.736543 777.282191,192.94561 797.21566,188.433893 C807.295402,186.152457 811.787989,185.162874 817.439068,184.020596 C820.14575,183.473483 822.783473,185.224158 823.330587,187.930841 C823.877701,190.637523 822.127025,193.275245 819.420343,193.822359 C813.870102,194.944254 809.427685,195.922785 799.423209,198.187186 C779.188242,202.767144 770.126235,204.598888 758.590248,206.105887 C722.786856,210.78305 706.25868,207.189659 700.815484,191.603819 C698.479773,184.915831 698.483902,176.471267 700.289778,163.780977 C701.329843,156.472209 707.314873,124.169046 707.420764,123.563503 C712.791928,92.8483178 715.605987,66.2767754 715.690253,35.9860904 Z" id="Path-15"></path>
                <path d="M719.119811,117.939657 C716.35918,118.005827 714.067606,115.821535 714.001436,113.060904 C713.935266,110.300273 716.119558,108.008698 718.880189,107.942528 C734.491157,107.568347 764.692376,107.03846 768.759947,106.840962 C772.323846,106.667919 775.60728,106.410758 782.522692,105.777382 C784.368962,105.608283 792.598089,104.844289 794.471307,104.671413 C800.467648,104.118019 806.194416,103.597826 812.689874,103.019688 C815.440424,102.774872 817.868648,104.80617 818.113465,107.55672 C818.358282,110.30727 816.326984,112.735495 813.576434,112.980312 C807.092467,113.557426 801.376362,114.076651 795.390287,114.629097 C793.522581,114.801465 785.288443,115.565924 783.434766,115.735701 C776.387469,116.381157 772.986429,116.647529 769.244919,116.829195 C764.995764,117.03551 734.568879,117.569356 719.119811,117.939657 Z" id="Path-16"></path>
                <path d="M56,51 C53.2385763,51 51,48.7614237 51,46 C51,43.2385763 53.2385763,41 56,41 L163.57312,41 C166.334543,41 168.57312,43.2385763 168.57312,46 C168.57312,48.7614237 166.334543,51 163.57312,51 L56,51 Z" id="Path-14-Copy"></path>
                <path d="M47.6902531,46.9860904 C47.6979351,44.2246774 49.9427302,41.9923373 52.7041433,42.0000193 C55.4655564,42.0077014 57.6978964,44.2524965 57.6902144,47.0139096 C57.6041761,77.9415058 54.7328148,105.054125 49.2712861,136.286063 C49.1303337,137.092104 43.1954245,169.124752 42.1900387,176.189822 C40.5939098,187.406173 40.5904226,194.536689 42.2563033,199.306709 C45.508274,208.618279 57.8397646,211.299269 89.2949072,207.190137 C100.422086,205.736543 109.282191,203.94561 129.21566,199.433893 C139.295402,197.152457 143.787989,196.162874 149.439068,195.020596 C152.14575,194.473483 154.783473,196.224158 155.330587,198.930841 C155.877701,201.637523 154.127025,204.275245 151.420343,204.822359 C145.870102,205.944254 141.427685,206.922785 131.423209,209.187186 C111.188242,213.767144 102.126235,215.598888 90.5902476,217.105887 C54.7868561,221.78305 38.2586797,218.189659 32.8154841,202.603819 C30.4797726,195.915831 30.4839024,187.471267 32.2897782,174.780977 C33.3298433,167.472209 39.3148726,135.169046 39.420764,134.563503 C44.7919281,103.848318 47.6059866,77.2767754 47.6902531,46.9860904 Z" id="Path-15-Copy"></path>
                <path d="M51.1198113,128.939657 C48.3591805,129.005827 46.0676056,126.821535 46.0014357,124.060904 C45.9352657,121.300273 48.1195579,119.008698 50.8801887,118.942528 C66.4911568,118.568347 96.6923765,118.03846 100.759947,117.840962 C104.323846,117.667919 107.60728,117.410758 114.522692,116.777382 C116.368962,116.608283 124.598089,115.844289 126.471307,115.671413 C132.467648,115.118019 138.194416,114.597826 144.689874,114.019688 C147.440424,113.774872 149.868648,115.80617 150.113465,118.55672 C150.358282,121.30727 148.326984,123.735495 145.576434,123.980312 C139.092467,124.557426 133.376362,125.076651 127.390287,125.629097 C125.522581,125.801465 117.288443,126.565924 115.434766,126.735701 C108.387469,127.381157 104.986429,127.647529 101.244919,127.829195 C96.9957636,128.03551 66.5688786,128.569356 51.1198113,128.939657 Z" id="Path-16-Copy"></path>
                <path d="M876.513212,4.8075968 C876.619473,2.04821831 878.942533,-0.102558085 881.701912,0.00370327075 C884.46129,0.109964627 886.612067,2.43302472 886.505805,5.1924032 L884.996297,44.3910909 C884.890035,47.1504694 882.566975,49.3012458 879.807597,49.1949844 C877.048218,49.088723 874.897442,46.7656629 875.003703,44.0062845 L876.513212,4.8075968 Z" id="Path-17"></path>
                <path d="M1003.94488,30.8006392 C1006.70622,30.8220186 1008.9274,33.0778593 1008.90602,35.8392002 C1008.88464,38.6005412 1006.6288,40.8217189 1003.86746,40.8003395 C996.466287,40.7430366 990.562833,40.5232332 977.305747,39.899576 C951.185372,38.6707872 939.658435,38.5815409 925.468854,40.158332 C919.655884,40.8042876 912.812126,50.4846783 909.24066,64.0300434 C905.541888,78.0582383 906.464017,91.7776876 911.650122,97.9697389 C917.635323,105.115886 925.18707,110.460135 934.735986,114.681031 C942.437499,118.085321 950.430937,120.47886 963.537391,123.645532 C964.903574,123.975618 965.169493,124.039192 968.680672,124.876907 C980.482354,127.692613 986.167217,129.195205 992.654254,131.40967 C1003.72939,135.190366 1012.8611,139.354398 1020.84316,144.596497 C1026.17403,148.097467 1030.73001,153.18688 1033.8824,159.010399 C1037.71922,166.0983 1037.03229,173.234475 1032.63988,179.653633 C1029.38522,184.41008 1024.29525,188.588617 1017.69689,192.505993 C1015.24814,193.959786 1012.68017,195.324094 1009.87832,196.694543 C1008.80874,197.217703 1007.7447,197.722801 1006.54292,198.281545 C1005.93266,198.565274 1004.11662,199.401876 1003.87472,199.514098 C995.972471,203.180105 975.683066,213.535901 974.213471,214.238524 C964.744831,218.765542 958.301933,220.759822 951.615927,220.70226 C942.198857,220.621184 933.210731,216.230778 921.336314,206.228781 C919.224288,204.44979 918.95431,201.295498 920.7333,199.183472 C922.512291,197.071446 925.666583,196.801468 927.778609,198.580458 C938.039315,207.223203 945.045137,210.645318 951.702018,210.70263 C956.514195,210.74406 961.689599,209.14211 969.90005,205.21664 C971.192157,204.598875 991.551716,194.207272 999.666337,190.44274 C999.925867,190.32234 1001.73683,189.488077 1002.327,189.213688 C1003.47351,188.680642 1004.48037,188.202687 1005.48452,187.711531 C1008.06078,186.451423 1010.39791,185.209757 1012.59189,183.907215 C1024.22555,177.000443 1028.70553,170.453291 1025.0882,163.770877 C1022.7032,159.364976 1019.26402,155.523117 1015.35376,152.955115 C1008.16503,148.234023 999.765208,144.403729 989.423626,140.873446 C983.332823,138.794242 977.857614,137.347064 966.359958,134.603895 C962.836077,133.763149 962.568708,133.699228 961.188852,133.365839 C947.54112,130.068388 939.081476,127.535249 930.693059,123.827328 C919.821515,119.021792 911.023065,112.795272 903.983802,104.390606 C887.931124,85.2241989 901.772102,32.7300376 924.36442,30.2195078 C939.25212,28.5651395 951.129488,28.657099 977.77566,29.9106231 C990.901848,30.5281223 996.718357,30.7446885 1003.94488,30.8006392 Z" id="Path-18"></path>
                <path d="M49.3736384,351 C49.3736384,348.238576 51.6122146,346 54.3736384,346 C57.1350621,346 59.3736384,348.238576 59.3736384,351 C59.3736384,400.796419 60.3356461,438.989699 62.0589587,468.578736 C63.2405449,488.866406 64.154089,498.266066 66.4082762,517.410832 C68.6956992,536.83787 68.5646409,537.710655 57.8230175,577.002383 C57.0948175,579.666062 54.3451562,581.235077 51.6814772,580.506877 C49.0177982,579.778677 47.4487825,577.029016 48.1769825,574.365337 C58.6054119,536.21924 58.5764716,536.411968 56.4768823,518.580197 C54.2016485,499.256682 53.2711097,489.68216 52.0758761,469.160167 C50.3404408,439.362985 49.3736384,400.979348 49.3736384,351 Z" id="Path-19"></path>
                <path d="M108.32557,383.181802 C108.315368,383.17109 108.306243,383.161714 108.29824,383.153701 C108.301089,383.156553 108.304198,383.159606 108.307587,383.162867 L108.32557,383.181802 Z M122.38637,508.091561 C122.042877,534.722237 121.918381,546.554268 121.868247,561.335235 C121.858881,564.096643 119.612724,566.327613 116.851316,566.318247 C114.089909,566.308881 111.858938,564.062725 111.868304,561.301317 C111.918582,546.4781 112.0433,534.62495 112.387202,507.962588 C113.073778,454.732937 113.153965,431.091849 112.41208,401.581347 C112.375635,400.131619 111.634339,397.24735 110.276095,393.235789 C110.037751,392.531841 109.780675,391.791854 109.493272,390.98011 C109.123171,389.934793 107.910985,386.579615 107.794633,386.253991 C107.160239,384.478564 106.762718,383.299877 106.48404,382.324434 C106.287893,381.637871 106.151043,381.05265 106.072847,380.49557 C106.008578,380.03771 105.981463,379.593843 106.012367,379.112222 C106.078688,378.078641 106.368164,377.07762 107.171166,376.081083 C108.427774,374.521613 110.358744,373.914198 112.160665,374.259691 C113.077455,374.435473 113.769067,374.787764 114.411921,375.254645 C115.005073,375.685428 115.521994,376.202998 116.109398,376.888105 C127.662365,390.362674 137.743824,405.286694 147.513915,422.808927 C154.907612,436.069201 160.378104,447.216861 171.610072,471.197613 C171.794103,471.590532 171.794103,471.590532 171.978103,471.983394 C191.488404,513.64005 201.151523,531.753844 216.730512,552.583211 C217.139467,553.129989 217.561178,553.751944 218.126765,554.624765 C218.26511,554.838261 218.965382,555.930607 219.338362,556.508348 C228.908861,536.440835 232.729555,507.262246 231.769328,470.770602 C231.015588,442.126095 227.90696,415.065709 222.041069,376.756783 C221.623109,374.027173 223.497072,371.475564 226.226682,371.057604 C228.956292,370.639644 231.507901,372.513607 231.925861,375.243217 C237.850954,413.938779 240.998254,441.335799 241.765868,470.507557 C242.848472,511.649928 238.059259,544.145036 225.571591,566.183474 C223.59948,569.663888 219.701189,570.422468 216.541236,568.443851 C215.11664,567.551834 213.941444,566.253343 212.593975,564.383071 C212.133218,563.743545 211.666259,563.053313 211.119889,562.214458 C210.823027,561.758679 209.876307,560.281424 209.734665,560.06284 C209.28191,559.364143 208.964901,558.896607 208.722578,558.572616 C199.729303,546.548459 191.613386,533.437932 183.472634,518.177859 C177.328732,506.660938 172.766063,497.242667 162.922156,476.224836 C162.738155,475.831973 162.738155,475.831973 162.554175,475.439163 C151.420652,451.668595 146.021996,440.66732 138.779868,427.678879 C133.467685,418.15171 128.076706,409.441449 122.409347,401.34693 C123.155024,431.018541 123.074451,454.745265 122.38637,508.091561 Z" id="Path-20"></path>
                <path d="M280,373.738688 C277.238576,373.738688 275,371.500112 275,368.738688 C275,365.977265 277.238576,363.738688 280,363.738688 C291.380609,363.738688 301.395207,363.775954 312.006351,363.846228 C314.348625,363.86174 329.524989,363.976969 332.98248,363.993337 C345.036562,364.050402 350.815127,363.913749 357.066861,363.374539 C362.928975,362.868934 367.684509,362.217932 383.930462,359.780788 C406.841872,356.343721 421.023272,354.287662 444.871577,351.045573 C447.607832,350.673589 450.127557,352.590209 450.49954,355.326464 C450.871524,358.062719 448.954904,360.582444 446.218649,360.954427 C422.423826,364.189245 408.283874,366.239296 385.414017,369.670129 C368.933606,372.142446 364.08174,372.806635 357.926167,373.33755 C351.300981,373.90897 345.269062,374.051615 332.935139,373.993225 C329.4607,373.976777 314.269723,373.861437 311.940126,373.846009 C301.349884,373.775873 291.357017,373.738688 280,373.738688 Z" id="Path-21"></path>
                <path d="M363,372 C363,369.238576 365.238576,367 368,367 C370.761424,367 373,369.238576 373,372 L373,535.123172 C373,537.884595 370.761424,540.123172 368,540.123172 C365.238576,540.123172 363,537.884595 363,535.123172 L363,372 Z" id="Path-22"></path>
                <path d="M461,351.699605 C458.238576,351.699605 456,349.461028 456,346.699605 C456,343.938181 458.238576,341.699605 461,341.699605 C474.972417,341.699605 481.95155,341.774698 497.146164,342.013739 C506.325904,342.158154 509.422063,342.147516 512.883454,341.906128 C516.481447,341.655213 519.839228,341.160075 527.188347,339.832444 C528.811472,339.539224 537.206972,338.000056 539.921389,337.507524 C546.236115,336.361714 552.387247,335.270953 559.342149,334.072607 C562.063473,333.603717 564.649652,335.429676 565.118542,338.150999 C565.587433,340.872323 563.761474,343.458502 561.040151,343.927393 C554.115965,345.120445 547.993659,346.206095 541.706742,347.346859 C539.005809,347.836945 530.605157,349.377057 528.966088,349.673157 C521.281892,351.06132 517.635469,351.599021 513.579138,351.881899 C509.727824,352.15048 506.470793,352.161671 496.988863,352.012502 C481.842649,351.774222 474.90774,351.699605 461,351.699605 Z" id="Path-23"></path>
                <path d="M573.539476,547.850708 C573.529502,547.85318 573.516384,547.856488 573.500062,547.86065 C573.510054,547.858102 573.520047,547.855587 573.530041,547.853103 L573.539476,547.850708 Z M579.580377,551.470326 C580.262626,554.146143 578.646519,556.868393 575.970701,557.550642 C577.433731,557.177616 556.273152,562.826914 547.99642,564.847609 C540.360122,566.711947 533.214096,568.293415 526.428222,569.58288 C513.110786,572.113484 501.773197,573.406948 492.644467,573.196023 C480.913654,572.924975 472.702566,570.205002 468.745828,563.840344 C462.34073,553.537348 459.407557,515.361626 458.380864,453.793411 C457.954342,428.216007 457.919438,403.592144 458.101666,370.99019 C458.11206,369.130535 458.160715,360.825214 458.171502,358.822954 C458.192973,354.837238 458.203175,352.12118 458.203175,350 C458.203175,347.238576 460.441752,345 463.203175,345 C465.964599,345 468.203175,347.238576 468.203175,350 C468.203175,352.143681 468.192918,354.874387 468.171357,358.876825 C468.160555,360.88196 468.111891,369.188685 468.10151,371.046084 C467.919665,403.579483 467.954481,428.140941 468.379473,453.626678 C469.348069,511.710907 472.342612,550.685373 477.238484,558.560686 C480.824104,564.328377 498.378579,564.733985 524.561408,559.758675 C531.162467,558.504329 538.144788,556.95909 545.624665,555.13294 C553.67782,553.16683 574.364558,547.646231 573.539476,547.850708 C576.196182,547.190487 578.900677,548.804501 579.580377,551.470326 Z" id="Path-24"></path>
                <path d="M466.03343,473.448128 C463.272068,473.466591 461.018574,471.243032 461.000112,468.48167 C460.981649,465.720308 463.205208,463.466814 465.96657,463.448352 L533.007353,463.000112 C535.768715,462.981649 538.022208,465.205208 538.040671,467.96657 C538.059133,470.727932 535.835574,472.981426 533.074212,472.999888 L466.03343,473.448128 Z" id="Path-25"></path>
                <path d="M606.885635,376.778749 C607.908348,377.45415 607.908348,377.45415 608.379539,377.988909 C608.94612,378.784138 608.94612,378.784138 609.124058,379.182251 C609.324231,379.630937 609.405477,379.927473 609.502675,380.370038 C609.577958,380.712823 609.65778,381.163482 609.754866,381.773526 C609.924684,382.840588 610.155569,384.456632 610.446968,386.611247 C611.849779,396.983664 614.629672,419.690803 617.710299,445.73116 C617.909453,445.486232 618.142177,445.239555 618.412122,444.990548 C637.172499,427.68527 647.712124,404.321501 650.932565,373.981556 C651.740681,366.368257 651.95198,359.280164 651.050045,352.594236 C649.860885,343.779154 646.949412,338.555268 642.450871,337.328844 C640.206819,336.717054 630.358171,336.950967 620.246843,337.949652 C615.134263,338.454616 610.431301,339.100466 606.937868,339.788065 C605.180578,340.133945 603.780979,340.480767 602.835485,340.798906 C602.763573,340.823103 602.696086,340.846545 602.633269,340.869019 C600.540483,344.686207 600.53367,349.717321 602.17773,358.224428 C602.358491,359.15977 602.532532,360.020792 602.84738,361.551491 C603.854034,366.445547 604.204553,368.308513 604.530677,370.860813 C604.761646,372.668413 604.99102,374.462845 605.218802,376.244129 C605.705959,376.287459 606.084096,376.444939 606.885635,376.778749 Z M623.279988,493.665077 C625.828271,516.014999 627.900894,534.857509 629.185866,547.453412 C629.887725,554.333371 630.349857,559.299789 630.552423,562.19242 C630.688069,564.129436 630.722495,565.0975 630.611126,565.902748 C630.554182,566.314486 630.465864,566.704626 630.273347,567.180112 C630.009623,567.800073 630.009623,567.800073 629.232888,568.787961 C627.852301,569.975319 627.852301,569.975319 625.357239,570.324952 C623.197659,569.830207 623.197659,569.830207 622.223459,569.014655 C621.603615,568.363518 621.603615,568.363518 621.32913,567.936023 C621.112725,567.587176 620.973678,567.282798 620.853231,566.960742 C620.67323,566.479453 620.548604,565.977703 620.396333,565.238988 C619.920881,562.932406 619.034912,557.253808 617.722979,548.07226 C617.143147,547.255845 616.802254,546.257868 616.802254,545.180271 C616.802254,544.257366 616.803222,542.959239 616.804608,541.570487 C612.713168,512.31263 605.420241,456.720631 594.611325,372.128273 C594.329265,369.920824 594.00477,368.19617 593.052436,363.566205 C592.729987,361.998554 592.54983,361.107272 592.359398,360.121891 C590.134866,348.611155 590.327917,341.324106 594.76208,334.568897 C597.131665,330.958961 605.034272,329.403522 619.263936,327.998074 C630.736475,326.864945 641.178316,326.616943 645.081146,327.68096 C654.469083,330.240368 659.292574,338.894873 660.960277,351.25734 C661.994249,358.922035 661.762673,366.690306 660.876703,375.037079 C657.58976,406.00354 647.009554,430.65961 628.269758,449.386612 C628.540048,449.740673 628.833693,450.121545 629.149726,450.527951 C631.124501,453.067438 633.893528,456.503622 637.305631,460.664959 C637.53431,460.943792 637.53431,460.943792 637.763123,461.222557 C641.532465,465.813856 649.884388,475.846376 649.994977,475.993314 C659.219403,488.249789 665.051236,496.862651 668.675105,503.231949 C670.576666,506.574124 673.07218,511.92955 673.243781,512.212874 C674.123612,513.665529 675.793456,515.368325 680.717622,519.636342 C684.074682,522.546072 706.680709,541.593461 710.517042,544.841992 C712.624424,546.626481 712.886181,549.781466 711.101692,551.888848 C709.317202,553.99623 706.162217,554.257987 704.054835,552.473497 C700.280029,549.277067 677.58686,530.156253 674.16796,527.192924 C668.472943,522.256772 666.283883,520.024515 664.690326,517.393453 C664.164183,516.52476 661.590822,511.002272 659.983443,508.177149 C656.597666,502.226322 650.993239,493.949309 642.005023,482.006686 C642.067053,482.089105 634.014932,472.416715 630.034141,467.567858 C629.803428,467.286778 629.803428,467.286778 629.572778,467.005541 C626.110541,462.783063 623.294643,459.288714 621.255629,456.666618 C620.106648,455.189071 619.212976,453.999575 618.579249,453.097069 C620.140879,466.371545 621.752463,480.267803 623.279988,493.665077 Z" id="Path-26"></path>
                <path d="M758.284193,391.263774 C773.556676,412.764255 780.267666,422.393721 788.338365,434.664788 C792.999478,441.751763 796.45706,447.598267 803.918092,460.687861 C812.469597,475.69059 816.37758,482.222261 821.717894,489.987208 C824.516102,494.055869 825.196162,495.29593 833.503618,510.945883 C834.437035,512.704296 835.215748,514.159181 835.960075,515.53179 C840.569505,524.03201 843.892053,529.344093 846.507385,532.12686 C855.402864,506.803739 856.820834,476.304085 852.439193,438.227699 C850.525098,421.594252 847.846873,405.443874 843.201976,380.864644 C842.945684,379.508437 839.983085,363.945269 839.151283,359.499457 C838.643438,356.785133 840.432143,354.17305 843.146467,353.665205 C845.860791,353.157361 848.472875,354.946066 848.98072,357.66039 C849.809056,362.087679 852.769173,377.637801 853.02806,379.007745 C857.714339,403.805958 860.42538,420.154221 862.373632,437.084494 C866.957391,476.917282 865.399654,509.057623 855.701786,536.265127 C852.56182,545.074347 845.223203,545.36231 839.220496,538.975308 C835.810537,535.347042 832.195366,529.567115 827.169384,520.298734 C826.409042,518.896591 825.617112,517.417013 824.670923,515.634538 C816.692254,500.60397 815.942166,499.236217 813.478423,495.653875 C807.925546,487.579857 803.921042,480.886864 795.288542,465.742036 C787.87418,452.734321 784.489168,447.010527 779.983453,440.159826 C772.000314,428.02189 765.334931,418.457864 750.149592,397.080065 C742.180002,385.860539 736.665936,378.050947 732.0369,371.363129 C733.492607,390.8683 734.727807,412.174592 736.232274,441.695527 C736.395796,444.904185 736.528314,447.523086 736.815808,453.218595 C739.071055,497.897006 740.210977,517.689909 742.174224,542.579633 C742.391365,545.332506 740.335747,547.740178 737.582874,547.957319 C734.830001,548.17446 732.422329,546.118842 732.205188,543.365969 C730.232067,518.351064 729.088515,498.495123 726.828524,453.722726 C726.54111,448.028816 726.408647,445.411013 726.245234,442.204494 C724.266589,403.379146 722.756793,378.831713 720.598099,353.903998 C720.21959,352.712247 720.072627,351.361606 720.015259,349.763578 C719.987922,349.0021 719.996608,348.270187 720.045499,347.736499 C720.070789,347.460434 720.105137,347.211196 720.175733,346.90813 C720.264131,346.500862 720.264131,346.500862 720.747186,345.472872 C721.235038,344.660349 721.235038,344.660349 722.901788,343.492029 C725.740472,342.809873 725.740472,342.809873 727.982552,343.937398 C729.14964,345.024864 729.14964,345.024864 729.502742,345.684664 C729.738086,346.182977 729.738086,346.182977 729.840824,346.489409 C729.97035,346.945621 729.97035,346.945621 730.017066,347.197427 C730.05699,347.418908 730.082475,347.627414 730.103272,347.858616 C730.2014,348.949543 730.298155,350.037776 730.393629,351.12451 C737.789826,362.263952 744.17852,371.405921 758.284193,391.263774 Z M730.169955,350.944375 C730.170572,350.946395 730.171183,350.948406 730.171787,350.95041 C730.170306,350.945497 730.168226,350.937468 730.165658,350.926551 L730.169955,350.944375 Z" id="Path-27"></path>
                <path d="M905.203854,358.646829 C902.444727,358.759414 900.116743,356.613968 900.004157,353.85484 C899.891572,351.095713 902.037018,348.767729 904.796146,348.655144 L994.270612,345.004157 C997.029739,344.891572 999.357723,347.037018 999.470308,349.796146 C999.582894,352.555273 997.437448,354.883257 994.67832,354.995843 L905.203854,358.646829 Z" id="Path-28"></path>
                <path d="M893.799391,354.998762 C893.800075,352.237338 896.039205,349.999316 898.800629,350 C901.562053,350.000684 903.800075,352.239814 903.799391,355.001238 C903.790765,389.838422 901.912853,419.445258 898.369852,451.719855 C897.864358,456.324593 897.347903,460.802875 896.673672,466.488365 C896.482572,468.099823 895.756882,474.187135 895.875987,473.18689 C895.566438,475.78648 895.345714,477.655485 895.138114,479.442222 C894.042524,488.871554 893.451865,494.948387 893.170684,500.208386 C892.542414,511.961282 893.64709,518.580372 896.766486,522.55906 C899.954873,526.625745 906.197151,529.004249 917.707219,530.091439 C928.521513,531.11291 942.326485,531.023413 971.093206,530.007579 C974.049111,529.903197 976.483108,529.567161 982.055446,528.604738 C985.008813,528.09465 986.334673,527.877167 988.023825,527.643963 C990.759302,527.266304 993.282998,529.177693 993.660657,531.91317 C994.038316,534.648647 992.126927,537.172342 989.39145,537.550002 C987.851347,537.762628 986.599523,537.967966 983.757391,538.458843 C977.73873,539.498352 975.005919,539.875643 971.446114,540.00135 C942.218763,541.03345 928.173067,541.124508 916.766848,540.047126 C902.788502,538.726793 894.15668,535.437798 888.896853,528.729058 C883.889955,522.342922 882.438181,513.64406 883.184941,499.674582 C883.480027,494.154475 884.08702,487.90959 885.204938,478.28809 C885.413853,476.490041 885.635561,474.612699 885.946137,472.004483 C885.827402,473.001622 886.552582,466.918596 886.743255,465.310736 C887.41436,459.65161 887.927733,455.200048 888.429567,450.628642 C891.935415,418.692497 893.790864,389.43981 893.799391,354.998762 Z" id="Path-29"></path>
                <path d="M896,417 C893.238576,417 891,414.761424 891,412 C891,409.238576 893.238576,407 896,407 L994.366967,407 C997.128391,407 999.366967,409.238576 999.366967,412 C999.366967,414.761424 997.128391,417 994.366967,417 L896,417 Z" id="Path-30"></path>
                <path d="M1094,339 C1094,336.238576 1096.23858,334 1099,334 C1101.76142,334 1104,336.238576 1104,339 L1104,531.244305 C1104,534.005729 1101.76142,536.244305 1099,536.244305 C1096.23858,536.244305 1094,534.005729 1094,531.244305 L1094,339 Z" id="Path-31"></path>
                <path d="M1037.06049,339.056113 C1034.29926,339.089518 1032.03377,336.878187 1032.00037,334.116965 C1031.96696,331.355743 1034.17829,329.09025 1036.93951,329.056845 C1061.22416,328.763047 1083.60695,327.405349 1120.68593,324.370711 C1123.49342,324.140939 1125.48383,323.976803 1130.90769,323.528533 C1161.96166,320.961993 1176.20814,319.902623 1194.00846,319.006326 C1196.76639,318.867457 1199.11471,320.990625 1199.25358,323.748554 C1199.39245,326.506484 1197.26928,328.854804 1194.51135,328.993674 C1176.85271,329.882836 1162.67979,330.936737 1131.73136,333.494554 C1126.30471,333.943055 1124.31275,334.107318 1121.50163,334.337388 C1084.20748,337.389636 1061.63564,338.7588 1037.06049,339.056113 Z" id="Path-32"></path>
                <path d="M116.345523,879.055097 C116.341106,879.052804 116.336862,879.050566 116.332792,879.048385 C116.342607,879.053645 116.353649,879.059888 116.365999,879.06728 L116.345523,879.055097 Z M122.059218,880.745568 C123.115001,881.00673 127.561248,882.071192 128.65061,882.338938 C135.258529,883.963052 139.250216,885.203865 142.09794,886.804099 C154.461327,893.751511 160.043014,904.552727 159.630053,917.967255 C159.317395,928.123553 155.715446,939.172509 149.479275,951.799603 C131.335442,988.537513 103.410556,1005.31449 65.4824308,1000.20268 C39.7412545,996.733385 7.36638306,965.794792 3.03841426,940.482821 C0.898816142,927.969459 0.571050796,915.119808 1.45677052,897.883095 C1.6588925,893.949662 1.85933082,890.741842 2.31875618,883.810383 C2.66761152,878.54712 2.80953601,876.342274 2.97539456,873.502365 C3.16939805,870.180545 3.34841236,866.491862 3.5715741,861.369967 C5.35680839,820.39618 6.07055497,808.96154 8.96660002,787.520649 C15.512173,739.060453 28.9196939,704.730906 53.1057003,686.783059 C54.1717613,685.991961 55.2794102,685.140867 56.6840947,684.039528 C57.0170494,683.778476 57.3642187,683.505369 57.7915325,683.168524 C58.0110103,682.995513 58.776276,682.391797 58.9099835,682.286367 C68.8768049,674.427433 74.1602245,671.084434 81.5805961,669.108376 C92.1450366,666.295047 108.491622,665.042489 121.37624,666.84996 C139.846564,669.441002 151.583123,677.924732 151.583123,693.276481 C151.583123,696.037905 149.344547,698.276481 146.583123,698.276481 C143.821699,698.276481 141.583123,696.037905 141.583123,693.276481 C141.583123,684.125642 134.12796,678.736704 119.987029,676.752995 C108.48396,675.139329 93.4749691,676.289394 84.15393,678.771603 C78.4886305,680.280282 74.013725,683.111706 65.1017616,690.138875 C64.9695423,690.243131 64.2035321,690.847435 63.9822223,691.02189 C63.5486132,691.363698 63.1949937,691.641879 62.8541949,691.909081 C61.3858083,693.060366 60.2132416,693.961341 59.0648956,694.813501 C37.6442607,710.709232 25.0908845,742.851768 18.8766085,788.859205 C16.0372928,809.880099 15.3325788,821.170032 13.5620958,861.805256 C13.3369671,866.972296 13.155856,870.704184 12.9583836,874.085399 C12.7904738,876.96043 12.647475,879.181967 12.2968623,884.471744 C11.8406795,891.354282 11.6423492,894.528365 11.4435942,898.396274 C10.5923958,914.961178 10.9032133,927.146409 12.8953639,938.79743 C16.4830048,959.779619 45.3901245,987.404304 66.8181162,990.292287 C100.269564,994.800746 124.185229,980.432465 140.513134,947.371475 C153.055986,921.974519 153.586827,904.730803 137.199074,895.521961 C135.438874,894.532844 131.937083,893.444315 126.263815,892.049922 C125.216148,891.792423 120.760183,890.725635 119.657959,890.452986 C117.166446,889.836677 115.417856,889.355098 114.012225,888.872454 C111.681944,888.072317 110.262432,887.390834 109.256485,885.977033 L98.4099258,884.93381 C92.9655693,884.410172 92.1939736,876.779206 97.4233081,875.17631 C113.090223,870.374087 125.801634,867.436064 154.503966,861.505409 C168.740463,858.563775 175.049553,857.221678 182.880158,855.41177 C185.570651,854.789909 188.255844,856.466866 188.877705,859.157359 C189.499565,861.847851 187.822608,864.533044 185.132115,865.154905 C177.200217,866.988226 170.840351,868.341124 156.527483,871.298538 C139.996168,874.714342 128.849437,877.12144 119.40804,879.460032 C120.335116,880.311753 121.13661,880.517349 122.059218,880.745568 Z" id="Path-33"></path>
                <path d="M228.749977,687.48951 C228.74467,687.47347 228.741307,687.463879 228.740201,687.461277 C228.740833,687.462764 228.741469,687.464256 228.742109,687.465753 L228.749977,687.48951 Z M233.328937,726.087331 C232.657702,738.718338 232.247457,744.647562 231.467793,751.526355 C221.972367,835.302285 216.44003,916.543719 214.999188,996.460523 C214.949409,999.221498 212.670843,1001.41936 209.909868,1001.36958 C207.148893,1001.3198 204.951034,999.041235 205.000812,996.280259 C206.447515,916.038399 212.001283,834.482257 221.531414,750.400135 C222.281763,743.779981 222.682047,737.994736 223.292367,726.510915 C224.420457,705.251419 225.244657,696.216536 227.582731,684.988935 C227.769618,684.091489 227.999343,683.36939 228.435538,682.627662 C229.796281,680.313784 232.801406,678.96518 235.706836,680.803224 C236.922316,681.572166 237.459605,682.411156 237.943652,683.550205 C238.144679,684.023256 238.315654,684.539727 238.48493,685.14498 C238.728434,686.015641 238.971489,687.081521 239.279147,688.572997 C239.432888,689.318309 239.978979,692.05618 240.067784,692.4933 C240.725919,695.732817 241.216626,697.725088 241.616122,698.701494 C261.902357,748.282971 280.697493,793.115873 299.184702,835.845297 C302.035313,842.433905 304.514327,847.654576 310.24038,859.359037 C316.495372,872.14469 319.210988,877.892108 322.318622,885.226761 C326.632499,895.408394 330.332114,905.924876 333.382726,916.657399 C337.075907,929.65058 339.734931,940.099171 345.493825,963.636881 C348.362286,975.360831 349.648307,980.56493 351.298797,987.050501 C351.979834,989.726627 350.362496,992.448146 347.68637,993.129183 C345.010244,993.810221 342.288726,992.192882 341.607688,989.516757 C339.947066,982.991369 338.656117,977.767331 335.780333,966.013449 C330.050739,942.595495 327.411984,932.226551 323.763749,919.391497 C320.825501,909.054286 317.263024,898.927631 313.110983,889.127965 C310.09732,882.015103 307.433361,876.377013 301.277723,863.794447 C295.463334,851.909418 292.939825,846.595045 290.006884,839.816149 C272.142494,798.526245 253.994489,755.283504 234.498629,707.709124 C234.08568,712.717732 233.72564,718.611057 233.328937,726.087331 Z" id="Path-34"></path>
                <path d="M223,884.412985 C220.238576,884.412985 218,882.174409 218,879.412985 C218,876.651562 220.238576,874.412985 223,874.412985 C238.189972,874.412985 249.781291,874.568986 259.530794,874.847832 C263.682188,874.966566 273.437641,875.340373 274.93811,875.36682 C280.225976,875.460022 278.401718,875.703433 301.299794,872.062049 C304.02695,871.628361 306.589319,873.487583 307.023007,876.214738 C307.456695,878.941894 305.597473,881.504263 302.870318,881.937951 C279.087563,885.720023 280.931335,885.474008 274.76188,885.365267 C273.137024,885.336627 263.303014,884.95981 259.2449,884.843744 C249.593622,884.567707 238.097283,884.412985 223,884.412985 Z" id="Path-35"></path>
                <path d="M419.479033,847.681935 C419.833167,847.852879 419.833167,847.852879 420.188331,848.024308 C429.813662,852.670779 434.046634,855.038224 438.134461,858.628398 C448.143404,867.418849 457.614276,875.634516 473.319873,889.186703 C474.27983,890.015039 475.254517,890.855977 476.582798,892.001908 C478.214344,893.409454 479.070787,894.148316 479.845907,894.817055 C512.828646,923.273124 529.138117,937.559857 547.965276,954.756317 C550.0042,956.618641 550.147362,959.781228 548.285038,961.820151 C546.422714,963.859075 543.260128,964.002238 541.221204,962.139913 C522.485221,945.026732 506.226831,930.784745 473.313525,902.38858 C472.538522,901.719941 471.6822,900.981183 470.050585,899.573579 C468.722077,898.427452 467.747168,897.586322 466.786916,896.757731 C451.060713,883.187764 441.572047,874.956661 431.535555,866.142015 C428.385616,863.375551 424.598167,861.257281 415.841023,857.029913 C415.486617,856.858849 415.486617,856.858849 415.13139,856.687378 C412.470561,855.402784 410.241661,854.301848 408.321244,853.303856 C409.543939,864.278059 410.03239,871.012849 410.342779,878.961444 C411.067374,897.517271 411.241758,912.347973 411.330781,945.694445 C411.375171,962.322231 411.41167,969.708567 411.520126,978.932312 C411.552593,981.693545 409.340492,983.958287 406.579259,983.990754 C403.818026,984.023222 401.553284,981.81112 401.520817,979.049887 C401.411886,969.785752 401.375288,962.379223 401.330817,945.721141 C401.242117,912.495879 401.068683,897.745971 400.350394,879.351641 C399.981646,869.908547 399.34053,862.114275 397.424194,846.18005 C392.052578,841.384095 389.565978,835.696931 390.786042,828.981363 C391.360816,825.817651 392.504608,822.994445 394.18216,820.46399 C393.748067,817.105255 393.282454,813.518504 392.782801,809.679126 C391.958185,803.342715 391.333983,798.476664 390.741665,793.736431 C384.071573,740.35674 382.774809,709.866746 388.748597,691.232463 C390.853419,684.666802 396.130993,681.4599 403.40974,681.048219 C408.138742,680.78075 412.585662,681.434488 421.707373,683.326507 C422.012555,683.389835 422.012555,683.389835 422.316997,683.453072 C430.7161,685.197821 434.154177,685.749658 437.580297,685.694332 C439.272601,685.667005 440.632752,685.627273 443.750211,685.522803 C445.433117,685.466407 446.199215,685.441715 447.149049,685.414698 C456.06386,685.161131 461.88918,685.421195 467.902377,686.680213 C480.525117,689.32311 489.400423,700.053934 493.731562,715.084111 C497.434958,727.93586 497.333552,742.780926 493.488221,752.940429 C486.773831,770.68009 468.367835,790.762533 449.040197,803.556065 C443.805823,807.020852 438.652439,809.097619 427.545866,812.789219 C427.132871,812.926458 427.132871,812.926458 426.720932,813.063312 C417.003402,816.29201 412.78262,817.942663 408.735174,820.404899 C407.131814,821.380292 405.775731,822.393857 404.652847,823.471109 C405.509253,830.127973 406.232385,835.833158 406.845352,840.813232 C409.812689,842.804324 413.940833,845.008206 419.479033,847.681935 Z M403.537902,811.861576 C408.464526,808.864499 413.104325,807.049978 423.567866,803.573414 C423.980239,803.436416 423.980239,803.436416 424.391734,803.299675 C434.638381,799.893897 439.283745,798.021857 443.520573,795.217376 C461.244264,783.485543 478.262857,764.91687 484.135723,749.400546 C487.170589,741.38232 487.257013,728.73043 484.122562,717.853068 C480.716333,706.032568 474.261746,698.228551 465.853056,696.467975 C460.792578,695.408433 455.623971,695.177687 447.433368,695.410656 C446.505957,695.437034 445.751263,695.461359 444.085136,695.517193 C440.909583,695.623609 439.511391,695.664452 437.741757,695.693029 C433.280618,695.765068 429.490892,695.156788 420.283114,693.244054 C419.979433,693.180975 419.979433,693.180975 419.676408,693.118094 C404.682849,690.00814 399.549304,690.29849 398.271232,694.285234 C392.937109,710.924186 394.209311,740.836678 400.664498,792.496517 C401.254346,797.216981 401.876571,802.067621 402.69918,808.388617 C402.862869,809.646414 403.022932,810.877299 403.179458,812.08213 C403.298168,812.008247 403.417651,811.93473 403.537902,811.861576 Z" id="Path-36"></path>
                <path d="M630.528027,972.837311 C630.528027,975.598735 628.289451,977.837311 625.528027,977.837311 C622.766604,977.837311 620.528027,975.598735 620.528027,972.837311 C620.528027,893.88491 616.553859,822.612298 607.719963,752.708623 C607.162041,748.293718 605.427986,743.53132 601.434463,734.58577 C601.271834,734.22148 601.110513,733.860856 600.87193,733.328041 C596.086984,722.642059 594.403869,718.305509 593.447353,712.867342 C592.004674,704.665153 594.004791,698.005143 600.37293,693.584418 C606.095728,689.611685 612.546921,689.051518 619.453799,691.346313 C624.656375,693.074857 629.890557,696.245715 636.55479,701.292305 C638.334844,702.640277 639.990835,703.941176 642.74073,706.134304 C651.448321,713.078885 654.515117,715.357103 658.513164,717.543361 C672.765308,725.336884 687.30547,734.881405 699.456805,744.97388 C715.201855,758.051168 726.086441,771.26588 730.552277,784.382456 C750.966423,844.340708 717.935275,945.189394 665.096066,980.054096 C657.24486,985.23453 649.027548,987.172135 633.850036,988.751252 C633.126797,988.8265 632.65631,988.874575 631.212517,989.021352 C622.134308,989.944246 618.146832,990.497997 613.729768,991.644101 C611.056857,992.337647 608.327804,990.733053 607.634259,988.060142 C606.940713,985.38723 608.545307,982.658178 611.218218,981.964632 C616.299717,980.646126 620.606761,980.047996 630.201125,979.072629 C631.636461,978.926712 632.102763,978.879065 632.81519,978.804942 C646.454137,977.385902 653.500641,975.724368 659.588654,971.707336 C708.58326,939.379404 740.050382,843.305906 721.085914,787.605494 C714.122622,767.153657 686.61861,744.309785 653.715334,726.317233 C649.000998,723.739285 645.733406,721.311903 636.505553,713.952396 C633.817095,711.808266 632.213288,710.548363 630.517788,709.264419 C618.638842,700.268909 611.632867,697.94119 606.075501,701.799081 C600.955958,705.353038 602.025869,711.435898 609.998719,729.241267 C610.238713,729.777234 610.401353,730.140806 610.565851,730.509284 C614.96677,740.367405 616.916649,745.72254 617.641057,751.45487 C626.530805,821.800508 630.528027,893.486574 630.528027,972.837311 Z" id="Path-37"></path>
                <path d="M774,692 C771.238576,692 769,689.761424 769,687 C769,684.238576 771.238576,682 774,682 L878.204018,682 C880.965441,682 883.204018,684.238576 883.204018,687 C883.204018,689.761424 880.965441,692 878.204018,692 L774,692 Z" id="Path-38"></path>
                <path d="M776.714145,697.019055 C776.703621,694.257652 778.933649,692.01056 781.695053,692.000036 C784.456457,691.989512 786.703548,694.219541 786.714072,696.980945 C786.915014,749.706386 783.467905,794.494465 776.815453,843.48719 C775.981428,849.629456 775.114514,855.73669 774.055521,862.992847 C773.613494,866.021595 771.903676,877.624278 771.500354,880.391993 C769.57483,893.605501 768.503405,901.795692 767.803211,909.170175 C766.149672,926.585363 767.015375,937.086289 770.82176,944.007413 C778.426807,957.835618 800.638356,961.254037 861.927252,957.621939 C866.766532,957.335154 870.689869,956.578127 879.611333,954.450224 C884.284808,953.335531 886.38035,952.859681 889.046814,952.345173 C891.758224,951.821993 894.380377,953.595904 894.903557,956.307314 C895.426737,959.018724 893.652826,961.640877 890.941416,962.164057 C888.465089,962.641877 886.463536,963.096384 881.931401,964.177366 C872.441644,966.440815 868.136515,967.271511 862.518834,967.604425 C829.986636,969.532346 809.446484,969.51207 794.59576,967.226503 C777.975622,964.668617 767.650942,958.993298 762.059476,948.826374 C757.022418,939.667525 756.018638,927.49174 757.847985,908.224945 C758.568183,900.639765 759.656739,892.31863 761.60487,878.949985 C762.009687,876.17201 763.719714,864.567901 764.160348,861.548706 C765.214918,854.322847 766.07739,848.246909 766.906384,842.141692 C773.500652,793.577477 776.91316,749.238963 776.714145,697.019055 Z" id="Path-39"></path>
                <path d="M779,835 C776.238576,835 774,832.761424 774,830 C774,827.238576 776.238576,825 779,825 L859.867622,825 C862.629046,825 864.867622,827.238576 864.867622,830 C864.867622,832.761424 862.629046,835 859.867622,835 L779,835 Z" id="Path-40"></path>
                <path d="M939.164173,875.288601 C940.038708,919.180245 940.33033,938.692094 940.33033,963.087641 C940.33033,965.849065 938.091753,968.087641 935.33033,968.087641 C932.568906,968.087641 930.33033,965.849065 930.33033,963.087641 C930.33033,938.780655 930.039369,919.313039 929.166157,875.48781 C927.41576,787.637965 927.41576,748.587304 930.339281,699.79491 C930.42016,698.44507 930.613424,697.364162 931.06893,696.348294 C932.162349,693.909752 934.763057,692.304321 937.746657,693.262447 C940.001347,693.986498 941.00416,695.338115 942.507184,698.153997 C943.840944,700.652767 944.223705,701.543791 948.225508,711.15059 C948.516325,711.84873 948.771127,712.457767 949.014107,713.034953 C951.164045,718.142014 952.647341,721.326772 953.793793,723.171043 C958.245576,730.332527 962.005486,735.997393 970.561453,748.613616 C981.895179,765.325805 986.830943,772.87742 992.506421,782.604779 C1001.21806,797.535905 1007.80438,809.694328 1022.2762,837.098254 C1037.55329,866.027055 1044.47712,878.770922 1053.66624,894.341452 C1056.36775,898.919025 1058.53251,903.021548 1062.65329,911.16507 C1062.57128,911.003 1063.44018,912.720463 1063.67376,913.181794 C1073.79339,933.168066 1080.0513,942.859019 1089.26036,950.044296 C1089.47607,947.934304 1089.54234,945.005825 1089.51366,940.760691 C1089.5102,940.249364 1089.5066,939.81638 1089.49873,938.928738 C1089.44279,932.624352 1089.48086,930.178562 1089.79908,927.605281 C1090.12716,924.952181 1090.37861,922.934149 1090.99389,918.007866 C1095.89789,878.74339 1097.71267,861.125603 1098.5473,839.215502 C1099.50173,814.160587 1099.46962,794.066859 1098.79897,748.800965 C1098.46266,726.101913 1098.34647,716.009163 1098.3263,703.384481 C1098.32189,700.623061 1100.55688,698.38091 1103.3183,698.376497 C1106.07972,698.372084 1108.32187,700.60708 1108.32629,703.368501 C1108.34637,715.934437 1108.46222,725.997827 1108.79787,748.652823 C1109.47113,794.095026 1109.50343,814.306288 1108.54005,839.59616 C1107.69085,861.888811 1105.85634,879.698126 1100.91679,919.247203 C1100.30203,924.169378 1100.0509,926.184873 1099.72348,928.832547 C1099.48285,930.778447 1099.44715,933.07169 1099.49833,938.840015 C1099.50627,939.734553 1099.50991,940.172537 1099.51343,940.693134 C1099.55931,947.484124 1099.39345,951.271885 1098.67293,954.452403 C1098.0522,957.192428 1097.03198,959.27649 1095.04517,960.673788 C1092.28659,962.613862 1089.08747,962.191595 1086.26904,960.246286 C1079.23493,955.391291 1073.28638,949.001972 1067.75142,940.812623 C1063.58566,934.649089 1060.39363,928.840891 1054.75219,917.699044 C1054.51773,917.235989 1053.6479,915.516661 1053.73061,915.68013 C1049.70476,907.724211 1047.61186,903.757872 1045.05415,899.423968 C1035.75822,883.672434 1028.78419,870.836187 1013.46213,841.822226 C999.027481,814.488691 992.48602,802.413071 983.869089,787.644274 C978.345201,778.176727 973.49242,770.752074 962.372211,754.354728 C953.654906,741.500605 949.845969,735.761872 945.300966,728.450426 C943.77846,726.001205 942.157056,722.51992 939.797493,716.914903 C939.68993,716.659394 939.580279,716.398203 939.466532,716.126585 C937.440241,757.984496 937.611265,797.350458 939.164173,875.288601 Z" id="Path-41"></path>
            </g>
        </g>
    </g>
</svg>